<?xml version="1.0"?>
<svg width="660" height="170" xmlns="http://www.w3.org/2000/svg" xmlns:svg="http://www.w3.org/2000/svg" preserveAspectRatio="xMidYMid meet" version="1.0">
 <defs>
  <g id="svg_1"/>
 </defs>
 <g class="layer">
  <title>INUGAMES</title>
  <path d="m18.26,6.16c-0.17,0.02 -0.51,0.15 -0.75,0.27c-0.24,0.12 -0.78,0.57 -1.19,1c-0.52,0.55 -0.74,0.87 -0.74,1.04c0,0.15 -0.05,0.28 -0.1,0.31c-0.07,0.03 -0.1,0.25 -0.1,0.51c0,0.25 -0.06,0.47 -0.11,0.5c-0.06,0.03 -0.1,0.25 -0.1,0.51c0,0.25 -0.05,0.47 -0.1,0.5c-0.06,0.03 -0.1,0.25 -0.1,0.51c0,0.25 -0.05,0.48 -0.1,0.51c-0.06,0.02 -0.1,0.3 -0.1,0.6c0,0.31 -0.06,0.58 -0.11,0.61c-0.05,0.03 -0.1,0.3 -0.1,0.61c0,0.3 -0.04,0.57 -0.1,0.61c-0.06,0.02 -0.1,0.3 -0.1,0.6c0,0.31 -0.05,0.58 -0.1,0.61c-0.06,0.03 -0.1,0.3 -0.1,0.61c0,0.3 -0.05,0.57 -0.1,0.61c-0.06,0.03 -0.1,0.3 -0.1,0.6c0,0.31 -0.05,0.58 -0.1,0.61c-0.07,0.03 -0.11,0.31 -0.11,0.61c0,0.3 -0.05,0.57 -0.1,0.61c-0.06,0.03 -0.1,0.3 -0.1,0.6c0,0.31 -0.05,0.58 -0.1,0.61c-0.06,0.03 -0.1,0.34 -0.1,0.71c0,0.36 -0.05,0.68 -0.1,0.71c-0.06,0.03 -0.1,0.3 -0.1,0.6c0,0.31 -0.05,0.58 -0.1,0.61c-0.07,0.03 -0.1,0.35 -0.1,0.71c0,0.37 -0.06,0.68 -0.11,0.71c-0.06,0.03 -0.1,0.34 -0.1,0.71c0,0.36 -0.05,0.68 -0.1,0.71c-0.06,0.03 -0.1,0.34 -0.1,0.71c0,0.36 -0.05,0.68 -0.1,0.7c-0.06,0.03 -0.1,0.31 -0.1,0.61c0,0.31 -0.05,0.58 -0.11,0.61c-0.05,0.03 -0.1,0.4 -0.1,0.81c0,0.41 -0.05,0.78 -0.1,0.81c-0.06,0.03 -0.1,0.34 -0.1,0.71c0,0.36 -0.05,0.68 -0.1,0.71c-0.06,0.03 -0.1,0.39 -0.1,0.81c0,0.41 -0.05,0.78 -0.1,0.81c-0.06,0.03 -0.1,0.34 -0.1,0.71c0,0.36 -0.05,0.67 -0.1,0.71c-0.07,0.02 -0.11,0.34 -0.11,0.7c0,0.37 -0.05,0.68 -0.1,0.71c-0.06,0.03 -0.1,0.35 -0.1,0.71c0,0.36 -0.05,0.68 -0.1,0.71c-0.06,0.03 -0.1,0.4 -0.1,0.81c0,0.41 -0.05,0.78 -0.1,0.81c-0.06,0.03 -0.1,0.34 -0.1,0.71c0,0.36 -0.05,0.68 -0.1,0.71c-0.07,0.03 -0.1,1.59 -0.1,4.35c0,2.76 -0.05,4.32 -0.11,4.35c-0.07,0.04 -0.1,2.33 -0.1,6.59c0,4.25 -0.03,6.55 -0.1,6.58c-0.06,0.03 -0.1,0.78 -0.1,1.92c0,1.14 -0.04,1.89 -0.1,1.93c-0.06,0.02 -0.1,0.34 -0.1,0.7c0,0.37 -0.05,0.68 -0.11,0.71c-0.05,0.03 -0.1,0.4 -0.1,0.81c0,0.42 -0.05,0.78 -0.1,0.81c-0.06,0.03 -0.1,0.4 -0.1,0.81c0,0.42 -0.05,0.78 -0.1,0.81c-0.06,0.03 -0.1,0.35 -0.1,0.71c0,0.37 -0.05,0.68 -0.1,0.71c-0.06,0.03 -0.1,0.39 -0.1,0.81c0,0.42 -0.05,0.78 -0.1,0.81c-0.07,0.03 -0.11,0.4 -0.11,0.81c0,0.41 -0.05,0.78 -0.1,0.81c-0.06,0.03 -0.1,0.34 -0.1,0.71c0,0.36 -0.05,0.68 -0.1,0.71c-0.06,0.03 -0.1,0.39 -0.1,0.81c0,0.41 -0.05,0.78 -0.1,0.81c-0.06,0.03 -0.1,0.39 -0.1,0.81c0,0.41 -0.06,0.78 -0.1,0.81c-0.06,0.03 -0.1,0.34 -0.1,0.71c0,0.36 -0.05,0.68 -0.11,0.71c-0.06,0.02 -0.1,0.39 -0.1,0.81c0,0.41 -0.05,0.77 -0.1,0.8c-0.06,0.04 -0.1,0.4 -0.1,0.82c0,0.41 -0.05,0.77 -0.1,0.8c-0.06,0.04 -0.1,0.35 -0.1,0.71c0,0.37 -0.05,0.68 -0.1,0.71c-0.06,0.03 -0.11,0.4 -0.11,0.81c0,0.42 -0.05,0.78 -0.1,0.81c-0.06,0.03 -0.1,0.35 -0.1,0.71c0,0.36 -0.05,0.68 -0.1,0.71c-0.06,0.03 -0.1,0.4 -0.1,0.81c0,0.41 -0.05,0.78 -0.1,0.81c-0.06,0.03 -0.1,0.39 -0.1,0.81c0,0.42 -0.05,0.78 -0.1,0.81c-0.07,0.03 -0.11,0.38 -0.11,0.78c0,0.4 -0.03,0.78 -0.1,0.84c-0.07,0.07 -0.12,1.08 -0.13,2.95c-0.02,2.19 0.01,2.89 0.11,2.99c0.07,0.07 0.12,0.24 0.12,0.36c0,0.13 0.04,0.25 0.11,0.28c0.05,0.03 0.1,0.21 0.1,0.41c0,0.19 0.04,0.37 0.1,0.4c0.05,0.03 0.1,0.16 0.1,0.31c0,0.14 0.04,0.27 0.1,0.3c0.05,0.03 0.1,0.16 0.1,0.3c0,0.14 0.04,0.28 0.1,0.31c0.05,0.03 0.1,0.16 0.1,0.3c0,0.14 0.05,0.27 0.11,0.3c0.05,0.03 0.1,0.17 0.1,0.31c0,0.14 0.04,0.27 0.1,0.3c0.05,0.03 0.1,0.16 0.1,0.31c0,0.14 0.04,0.27 0.1,0.3c0.05,0.03 0.1,0.16 0.1,0.3c0,0.14 0.04,0.28 0.1,0.31c0.06,0.03 0.11,0.16 0.11,0.3c0,0.14 0.04,0.27 0.1,0.3c0.04,0.03 0.1,0.17 0.1,0.31c0,0.14 0.04,0.27 0.1,0.3c0.05,0.03 0.1,0.16 0.1,0.31c0,0.14 0.04,0.27 0.1,0.3c0.05,0.03 0.1,0.14 0.1,0.25c0,0.11 0.09,0.37 0.2,0.56c0.11,0.19 0.21,0.44 0.21,0.55c0,0.12 0.04,0.23 0.1,0.26c0.05,0.03 0.1,0.16 0.1,0.3c0,0.14 0.04,0.28 0.1,0.31c0.05,0.02 0.1,0.14 0.1,0.25c0,0.11 0.09,0.36 0.2,0.56c0.12,0.19 0.21,0.42 0.21,0.5c0,0.08 0.09,0.32 0.2,0.51c0.11,0.19 0.2,0.44 0.2,0.56c0,0.11 0.04,0.22 0.1,0.25c0.05,0.03 0.11,0.14 0.11,0.25c0,0.11 0.09,0.37 0.2,0.56c0.11,0.19 0.2,0.42 0.2,0.51c0,0.07 0.09,0.31 0.2,0.5c0.11,0.19 0.2,0.43 0.2,0.51c0,0.08 0.09,0.31 0.21,0.5c0.11,0.2 0.2,0.43 0.2,0.51c0,0.08 0.09,0.31 0.2,0.51c0.11,0.19 0.2,0.42 0.2,0.5c0,0.08 0.1,0.32 0.21,0.51c0.11,0.19 0.2,0.43 0.2,0.5c0,0.09 0.09,0.32 0.2,0.51c0.11,0.19 0.21,0.43 0.21,0.51c0,0.08 0.12,0.4 0.3,0.71c0.16,0.3 0.3,0.62 0.3,0.7c0,0.09 0.09,0.32 0.2,0.51c0.12,0.19 0.21,0.41 0.21,0.48c0,0.07 0.14,0.42 0.31,0.79c0.17,0.36 0.36,0.75 0.39,0.86c0.05,0.11 0.23,0.49 0.4,0.86c0.17,0.36 0.32,0.7 0.32,0.76c0,0.05 0.22,0.56 0.5,1.11c0.28,0.56 0.51,1.05 0.51,1.11c0,0.05 0.48,1.09 1.09,2.28c0.6,1.2 1.18,2.31 1.29,2.49c0.12,0.16 0.27,0.43 0.35,0.6c0.08,0.16 0.46,0.77 0.83,1.34c0.39,0.57 0.69,1.06 0.69,1.09c0,0.03 0.36,0.59 0.81,1.23c0.44,0.66 1.02,1.5 1.28,1.87c0.28,0.37 0.65,0.9 0.84,1.16c0.19,0.28 0.58,0.81 0.87,1.21c0.29,0.38 0.6,0.78 0.7,0.86c0.09,0.08 0.17,0.19 0.17,0.25c0,0.05 0.19,0.31 0.42,0.57c0.23,0.26 0.68,0.78 0.98,1.16c0.31,0.38 1.29,1.43 2.18,2.34c0.89,0.91 1.69,1.65 1.77,1.65c0.08,0 0.29,0.13 0.46,0.31c0.16,0.17 0.37,0.3 0.45,0.3c0.09,0 0.32,0.16 0.51,0.36c0.19,0.2 0.55,0.45 0.78,0.56c0.24,0.1 0.46,0.23 0.49,0.3c0.03,0.05 0.22,0.17 0.42,0.27c0.21,0.09 0.48,0.24 0.59,0.34c0.11,0.09 0.37,0.27 0.58,0.39c0.21,0.12 0.44,0.21 0.5,0.21c0.07,0.01 0.29,0.14 0.49,0.31c0.19,0.17 0.42,0.3 0.5,0.31c0.09,0 0.32,0.13 0.51,0.3c0.19,0.16 0.38,0.3 0.43,0.3c0.05,0 0.28,0.13 0.53,0.3c0.26,0.16 0.52,0.3 0.58,0.3c0.07,0.01 0.29,0.15 0.48,0.32c0.2,0.16 0.43,0.29 0.51,0.3c0.08,0 0.32,0.13 0.51,0.31c0.19,0.16 0.42,0.29 0.5,0.3c0.09,0 0.32,0.13 0.51,0.3c0.19,0.16 0.42,0.29 0.47,0.29c0.08,0 0.7,0.38 1.37,0.83c0.69,0.45 1.34,0.91 1.45,1c0.11,0.1 0.38,0.27 0.58,0.39c0.21,0.12 0.44,0.21 0.5,0.21c0.07,0 0.21,0.07 0.3,0.18c0.1,0.1 0.39,0.29 0.66,0.42c0.27,0.13 0.58,0.29 0.7,0.35c0.11,0.06 0.63,0.33 1.16,0.59c0.53,0.28 1,0.49 1.06,0.49c0.05,0 0.3,0.09 0.53,0.2c0.24,0.11 0.48,0.2 0.53,0.2c0.06,0 0.27,0.1 0.46,0.21c0.19,0.11 0.43,0.2 0.51,0.2c0.08,0 0.31,0.09 0.5,0.2c0.19,0.11 0.45,0.21 0.56,0.21c0.11,0 0.22,0.04 0.25,0.1c0.03,0.05 0.15,0.1 0.26,0.1c0.11,0 0.28,0.04 0.38,0.09c0.09,0.05 0.38,0.15 0.63,0.22c0.25,0.07 0.61,0.21 0.78,0.31c0.18,0.11 0.46,0.19 0.64,0.19c0.16,0 0.32,0.04 0.35,0.1c0.03,0.05 0.17,0.1 0.31,0.1c0.14,0 0.27,0.04 0.3,0.1c0.03,0.05 0.16,0.1 0.3,0.1c0.15,0 0.27,0.04 0.31,0.11c0.03,0.04 0.16,0.09 0.3,0.09c0.14,0 0.27,0.05 0.31,0.11c0.02,0.05 0.21,0.1 0.4,0.1c0.19,0 0.37,0.04 0.4,0.1c0.04,0.05 0.16,0.1 0.31,0.1c0.14,0 0.27,0.04 0.3,0.1c0.03,0.05 0.21,0.1 0.41,0.1c0.19,0 0.37,0.04 0.4,0.1c0.03,0.06 0.21,0.11 0.41,0.11c0.19,0 0.37,0.04 0.4,0.1c0.03,0.05 0.31,0.1 0.61,0.1c0.3,0 0.57,0.04 0.61,0.1c0.03,0.05 0.33,0.1 0.68,0.1c0.38,0 0.68,0.05 0.76,0.12c0.11,0.1 1.38,0.13 5.9,0.13c4.47,0 5.79,-0.03 5.88,-0.13c0.08,-0.07 0.39,-0.12 0.77,-0.12c0.35,0 0.66,-0.05 0.69,-0.1c0.03,-0.06 0.3,-0.1 0.6,-0.1c0.31,0 0.58,-0.05 0.61,-0.1c0.03,-0.06 0.21,-0.1 0.41,-0.1c0.19,0 0.37,-0.05 0.4,-0.11c0.03,-0.06 0.21,-0.1 0.41,-0.1c0.19,0 0.37,-0.05 0.4,-0.1c0.03,-0.06 0.17,-0.1 0.31,-0.1c0.14,0 0.27,-0.05 0.3,-0.1c0.03,-0.06 0.21,-0.1 0.41,-0.1c0.19,0 0.37,-0.05 0.4,-0.1c0.03,-0.06 0.16,-0.11 0.3,-0.11c0.14,0 0.28,-0.05 0.31,-0.09c0.03,-0.07 0.16,-0.11 0.3,-0.11c0.14,0 0.28,-0.05 0.3,-0.1c0.04,-0.06 0.17,-0.1 0.31,-0.1c0.14,0 0.27,-0.05 0.3,-0.1c0.03,-0.06 0.18,-0.1 0.36,-0.1c0.16,0 0.45,-0.08 0.62,-0.19c0.19,-0.1 0.54,-0.24 0.79,-0.31c0.26,-0.07 0.54,-0.17 0.63,-0.22c0.1,-0.05 0.28,-0.09 0.39,-0.09c0.11,0 0.22,-0.05 0.25,-0.1c0.03,-0.06 0.14,-0.1 0.25,-0.1c0.12,0 0.37,-0.1 0.56,-0.21c0.19,-0.11 0.43,-0.2 0.5,-0.2c0.09,0 0.32,-0.09 0.51,-0.2c0.19,-0.11 0.4,-0.21 0.46,-0.21c0.05,0 0.29,-0.09 0.52,-0.2c0.25,-0.11 0.48,-0.2 0.54,-0.2c0.05,0 0.54,-0.21 1.06,-0.49c0.53,-0.26 1.06,-0.53 1.17,-0.59c0.11,-0.06 0.42,-0.22 0.7,-0.35c0.26,-0.13 0.55,-0.32 0.65,-0.42c0.1,-0.11 0.23,-0.18 0.29,-0.18c0.07,0 0.3,-0.09 0.51,-0.21c0.21,-0.12 0.47,-0.29 0.58,-0.39c0.11,-0.09 0.76,-0.55 1.44,-1c0.69,-0.45 1.31,-0.83 1.37,-0.83c0.07,0 0.29,-0.13 0.48,-0.29c0.2,-0.17 0.43,-0.3 0.51,-0.3c0.08,-0.01 0.31,-0.14 0.5,-0.3c0.2,-0.18 0.43,-0.31 0.51,-0.31c0.08,-0.01 0.31,-0.14 0.51,-0.3c0.19,-0.17 0.41,-0.31 0.47,-0.32c0.08,0 0.34,-0.14 0.59,-0.3c0.26,-0.17 0.49,-0.3 0.53,-0.3c0.05,0 0.24,-0.14 0.43,-0.3c0.19,-0.17 0.43,-0.3 0.51,-0.3c0.08,-0.01 0.31,-0.14 0.5,-0.31c0.2,-0.17 0.42,-0.3 0.48,-0.31c0.07,0 0.31,-0.09 0.51,-0.21c0.21,-0.12 0.48,-0.3 0.58,-0.39c0.12,-0.1 0.38,-0.25 0.58,-0.34c0.21,-0.1 0.41,-0.22 0.44,-0.27c0.03,-0.07 0.24,-0.2 0.47,-0.3c0.25,-0.11 0.6,-0.36 0.79,-0.56c0.19,-0.2 0.43,-0.36 0.51,-0.36c0.08,0 0.28,-0.13 0.45,-0.3c0.17,-0.18 0.38,-0.31 0.46,-0.31c0.08,0 0.88,-0.74 1.77,-1.65c0.89,-0.91 1.87,-1.96 2.18,-2.34c0.3,-0.38 0.75,-0.9 0.98,-1.16c0.23,-0.26 0.43,-0.52 0.43,-0.57c0,-0.06 0.08,-0.17 0.17,-0.25c0.09,-0.08 0.4,-0.48 0.7,-0.86c0.28,-0.4 0.68,-0.93 0.87,-1.21c0.19,-0.26 0.56,-0.79 0.83,-1.16c0.26,-0.37 0.84,-1.21 1.29,-1.87c0.44,-0.64 0.8,-1.2 0.8,-1.23c0,-0.03 0.31,-0.52 0.69,-1.09c0.38,-0.57 0.75,-1.18 0.83,-1.34c0.09,-0.17 0.24,-0.44 0.36,-0.6c0.11,-0.18 0.69,-1.29 1.28,-2.49c0.61,-1.19 1.1,-2.23 1.1,-2.28c0,-0.06 0.22,-0.55 0.5,-1.11c0.29,-0.55 0.51,-1.06 0.51,-1.11c0,-0.06 0.14,-0.4 0.31,-0.76c0.17,-0.37 0.36,-0.75 0.4,-0.86c0.04,-0.11 0.22,-0.5 0.39,-0.86c0.18,-0.37 0.32,-0.72 0.32,-0.79c0,-0.07 0.09,-0.29 0.2,-0.48c0.11,-0.19 0.2,-0.42 0.2,-0.51c0,-0.08 0.13,-0.4 0.3,-0.7c0.17,-0.31 0.31,-0.63 0.31,-0.71c0,-0.08 0.09,-0.32 0.2,-0.51c0.11,-0.19 0.21,-0.42 0.21,-0.51c0,-0.07 0.09,-0.31 0.2,-0.5c0.11,-0.19 0.2,-0.43 0.2,-0.51c0,-0.08 0.09,-0.31 0.2,-0.5c0.11,-0.2 0.2,-0.43 0.2,-0.51c0,-0.08 0.09,-0.31 0.21,-0.51c0.11,-0.19 0.2,-0.42 0.2,-0.5c0,-0.08 0.09,-0.32 0.2,-0.51c0.11,-0.19 0.21,-0.43 0.21,-0.5c0,-0.09 0.09,-0.32 0.2,-0.51c0.11,-0.19 0.2,-0.45 0.2,-0.56c0,-0.11 0.04,-0.22 0.1,-0.25c0.05,-0.03 0.1,-0.14 0.1,-0.25c0,-0.12 0.09,-0.37 0.2,-0.56c0.11,-0.19 0.21,-0.43 0.21,-0.51c0,-0.08 0.09,-0.31 0.2,-0.5c0.11,-0.2 0.2,-0.45 0.2,-0.56c0,-0.11 0.04,-0.23 0.1,-0.25c0.05,-0.03 0.1,-0.17 0.1,-0.31c0,-0.14 0.05,-0.27 0.11,-0.3c0.05,-0.03 0.1,-0.14 0.1,-0.26c0,-0.11 0.09,-0.36 0.2,-0.55c0.11,-0.19 0.2,-0.45 0.2,-0.56c0,-0.11 0.04,-0.22 0.1,-0.25c0.06,-0.03 0.11,-0.16 0.11,-0.3c0,-0.15 0.04,-0.28 0.1,-0.31c0.04,-0.03 0.1,-0.16 0.1,-0.3c0,-0.14 0.04,-0.28 0.1,-0.31c0.05,-0.03 0.1,-0.16 0.1,-0.3c0,-0.14 0.04,-0.27 0.1,-0.3c0.05,-0.03 0.1,-0.17 0.1,-0.31c0,-0.14 0.04,-0.27 0.1,-0.3c0.05,-0.03 0.1,-0.16 0.1,-0.3c0,-0.15 0.04,-0.28 0.11,-0.31c0.05,-0.03 0.1,-0.16 0.1,-0.3c0,-0.14 0.04,-0.28 0.1,-0.31c0.05,-0.03 0.1,-0.16 0.1,-0.3c0,-0.14 0.04,-0.27 0.1,-0.3c0.05,-0.03 0.1,-0.17 0.1,-0.31c0,-0.14 0.04,-0.27 0.1,-0.3c0.05,-0.03 0.1,-0.16 0.1,-0.3c0,-0.15 0.05,-0.28 0.1,-0.31c0.06,-0.03 0.11,-0.21 0.11,-0.4c0,-0.2 0.04,-0.38 0.1,-0.41c0.05,-0.03 0.1,-0.15 0.1,-0.28c0,-0.12 0.05,-0.29 0.12,-0.36c0.1,-0.1 0.13,-0.8 0.11,-2.99c-0.01,-1.87 -0.06,-2.88 -0.13,-2.95c-0.06,-0.06 -0.1,-0.44 -0.1,-0.84c0,-0.4 -0.05,-0.75 -0.1,-0.78c-0.06,-0.03 -0.1,-0.39 -0.1,-0.81c0,-0.42 -0.05,-0.78 -0.11,-0.81c-0.05,-0.03 -0.1,-0.4 -0.1,-0.81c0,-0.41 -0.05,-0.78 -0.1,-0.81c-0.06,-0.03 -0.1,-0.35 -0.1,-0.71c0,-0.36 -0.05,-0.68 -0.1,-0.71c-0.06,-0.03 -0.1,-0.39 -0.1,-0.81c0,-0.41 -0.05,-0.78 -0.1,-0.81c-0.06,-0.03 -0.1,-0.34 -0.1,-0.71c0,-0.36 -0.05,-0.67 -0.1,-0.71c-0.07,-0.03 -0.11,-0.39 -0.11,-0.8c0,-0.42 -0.05,-0.78 -0.1,-0.82c-0.06,-0.03 -0.1,-0.39 -0.1,-0.8c0,-0.42 -0.05,-0.79 -0.1,-0.81c-0.06,-0.03 -0.1,-0.35 -0.1,-0.71c0,-0.37 -0.05,-0.68 -0.1,-0.71c-0.06,-0.03 -0.1,-0.4 -0.1,-0.81c0,-0.42 -0.06,-0.78 -0.1,-0.81c-0.06,-0.03 -0.1,-0.4 -0.1,-0.81c0,-0.42 -0.05,-0.78 -0.11,-0.81c-0.06,-0.03 -0.1,-0.35 -0.1,-0.71c0,-0.37 -0.05,-0.68 -0.1,-0.71c-0.06,-0.03 -0.1,-0.4 -0.1,-0.81c0,-0.41 -0.05,-0.78 -0.1,-0.81c-0.06,-0.03 -0.1,-0.39 -0.1,-0.81c0,-0.42 -0.05,-0.78 -0.1,-0.81c-0.06,-0.03 -0.11,-0.34 -0.11,-0.71c0,-0.36 -0.05,-0.68 -0.1,-0.71c-0.06,-0.03 -0.1,-0.39 -0.1,-0.81c0,-0.41 -0.05,-0.78 -0.1,-0.81c-0.06,-0.03 -0.1,-0.39 -0.1,-0.81c0,-0.41 -0.05,-0.78 -0.1,-0.81c-0.06,-0.03 -0.1,-0.34 -0.1,-0.71c0,-0.36 -0.05,-0.68 -0.1,-0.7c-0.07,-0.04 -0.11,-0.79 -0.11,-1.93c0,-1.14 -0.04,-1.89 -0.1,-1.92c-0.07,-0.03 -0.1,-2.33 -0.1,-6.58c0,-4.26 -0.03,-6.55 -0.1,-6.59c-0.06,-0.03 -0.1,-1.59 -0.1,-4.35c0,-2.76 -0.04,-4.32 -0.1,-4.35c-0.06,-0.03 -0.1,-0.35 -0.1,-0.71c0,-0.37 -0.06,-0.68 -0.11,-0.71c-0.05,-0.03 -0.09,-0.4 -0.09,-0.81c0,-0.41 -0.05,-0.78 -0.11,-0.81c-0.06,-0.03 -0.1,-0.35 -0.1,-0.71c0,-0.36 -0.05,-0.68 -0.1,-0.71c-0.06,-0.03 -0.1,-0.34 -0.1,-0.71c0,-0.36 -0.05,-0.68 -0.1,-0.7c-0.06,-0.04 -0.1,-0.35 -0.1,-0.71c0,-0.37 -0.05,-0.68 -0.1,-0.71c-0.06,-0.03 -0.11,-0.4 -0.11,-0.81c0,-0.42 -0.05,-0.78 -0.1,-0.81c-0.06,-0.03 -0.1,-0.35 -0.1,-0.71c0,-0.37 -0.05,-0.68 -0.1,-0.71c-0.06,-0.03 -0.1,-0.4 -0.1,-0.81c0,-0.41 -0.05,-0.78 -0.1,-0.81c-0.06,-0.03 -0.1,-0.3 -0.1,-0.61c0,-0.3 -0.05,-0.58 -0.1,-0.61c-0.07,-0.02 -0.1,-0.34 -0.1,-0.7c0,-0.37 -0.06,-0.68 -0.11,-0.71c-0.06,-0.03 -0.1,-0.35 -0.1,-0.71c0,-0.37 -0.05,-0.68 -0.1,-0.71c-0.06,-0.03 -0.1,-0.34 -0.1,-0.71c0,-0.36 -0.05,-0.68 -0.1,-0.71c-0.06,-0.03 -0.1,-0.3 -0.1,-0.61c0,-0.3 -0.05,-0.57 -0.11,-0.6c-0.05,-0.03 -0.1,-0.35 -0.1,-0.71c0,-0.37 -0.05,-0.68 -0.09,-0.71c-0.07,-0.03 -0.11,-0.3 -0.11,-0.61c0,-0.3 -0.05,-0.57 -0.1,-0.6c-0.06,-0.04 -0.1,-0.31 -0.1,-0.61c0,-0.3 -0.05,-0.58 -0.1,-0.61c-0.06,-0.03 -0.1,-0.3 -0.1,-0.61c0,-0.3 -0.05,-0.57 -0.1,-0.6c-0.07,-0.04 -0.11,-0.31 -0.11,-0.61c0,-0.31 -0.05,-0.58 -0.1,-0.61c-0.06,-0.03 -0.1,-0.3 -0.1,-0.61c0,-0.3 -0.05,-0.58 -0.1,-0.6c-0.06,-0.04 -0.1,-0.31 -0.1,-0.61c0,-0.31 -0.05,-0.58 -0.1,-0.61c-0.06,-0.03 -0.1,-0.3 -0.1,-0.61c0,-0.3 -0.05,-0.58 -0.1,-0.6c-0.07,-0.03 -0.1,-0.26 -0.1,-0.51c0,-0.26 -0.06,-0.48 -0.11,-0.51c-0.06,-0.03 -0.1,-0.25 -0.1,-0.5c0,-0.26 -0.05,-0.48 -0.1,-0.51c-0.06,-0.03 -0.1,-0.25 -0.1,-0.5c0,-0.26 -0.05,-0.48 -0.1,-0.51c-0.06,-0.03 -0.1,-0.16 -0.1,-0.31c0,-0.17 -0.23,-0.49 -0.75,-1.04c-0.41,-0.43 -0.96,-0.89 -1.24,-1.03c-0.47,-0.24 -0.53,-0.26 -2.73,-0.26c-1.67,0 -2.29,0.04 -2.38,0.13c-0.07,0.07 -0.23,0.13 -0.36,0.13c-0.14,0 -0.26,0.04 -0.29,0.1c-0.03,0.05 -0.13,0.1 -0.23,0.1c-0.09,0 -0.97,0.4 -1.95,0.89c-0.97,0.49 -1.92,0.98 -2.1,1.12c-0.17,0.12 -0.34,0.22 -0.38,0.22c-0.03,0 -0.88,0.56 -1.9,1.23c-1.01,0.67 -1.86,1.26 -1.89,1.29c-0.03,0.03 -0.12,0.1 -0.21,0.16c-0.1,0.05 -0.4,0.26 -0.66,0.45c-0.28,0.19 -1.2,0.87 -2.05,1.52c-0.85,0.65 -1.9,1.43 -2.33,1.77c-0.42,0.32 -0.92,0.71 -1.09,0.86c-0.18,0.14 -0.58,0.46 -0.9,0.72c-0.33,0.25 -0.82,0.65 -1.11,0.91c-0.3,0.25 -0.8,0.65 -1.12,0.91c-0.32,0.25 -0.87,0.71 -1.22,1.01c-0.35,0.3 -0.94,0.81 -1.31,1.12c-0.37,0.3 -0.94,0.79 -1.26,1.08c-0.31,0.29 -0.61,0.53 -0.66,0.53c-0.07,0 -0.41,0.3 -0.79,0.65c-0.36,0.34 -1.06,0.96 -1.54,1.38c-0.48,0.42 -1.09,0.94 -1.35,1.17c-0.26,0.23 -0.74,0.61 -1.06,0.86c-0.47,0.36 -0.61,0.42 -0.71,0.32c-0.08,-0.08 -0.46,-0.12 -1.17,-0.12c-0.58,0 -1.05,-0.04 -1.08,-0.1c-0.03,-0.07 -0.58,-0.1 -1.32,-0.1c-0.73,0 -1.28,-0.04 -1.31,-0.11c-0.03,-0.05 -0.54,-0.1 -1.22,-0.1c-0.68,0 -1.18,-0.04 -1.21,-0.1c-0.03,-0.06 -0.74,-0.1 -1.82,-0.1c-1.09,0 -1.8,-0.04 -1.83,-0.1c-0.03,-0.07 -2.45,-0.1 -6.93,-0.1c-4.49,0 -6.91,0.03 -6.94,0.1c-0.03,0.06 -0.74,0.1 -1.82,0.1c-1.08,0 -1.79,0.04 -1.82,0.1c-0.03,0.06 -0.54,0.1 -1.22,0.1c-0.68,0 -1.19,0.05 -1.21,0.1c-0.03,0.07 -0.58,0.11 -1.32,0.11c-0.74,0 -1.28,0.03 -1.32,0.1c-0.03,0.06 -0.49,0.1 -1.09,0.1c-0.71,0 -1.08,0.04 -1.16,0.12c-0.1,0.1 -0.24,0.04 -0.7,-0.32c-0.33,-0.25 -0.8,-0.63 -1.06,-0.86c-0.27,-0.23 -0.88,-0.75 -1.35,-1.17c-0.49,-0.42 -1.19,-1.04 -1.55,-1.38c-0.37,-0.35 -0.73,-0.65 -0.78,-0.65c-0.06,0 -0.36,-0.24 -0.67,-0.53c-0.32,-0.29 -0.88,-0.78 -1.26,-1.08c-0.37,-0.31 -0.96,-0.82 -1.31,-1.12c-0.35,-0.3 -0.89,-0.76 -1.22,-1.01c-0.32,-0.26 -0.82,-0.66 -1.11,-0.91c-0.29,-0.26 -0.79,-0.66 -1.11,-0.91c-0.33,-0.26 -0.72,-0.58 -0.91,-0.72c-0.17,-0.15 -0.66,-0.54 -1.09,-0.86c-0.42,-0.34 -1.48,-1.12 -2.33,-1.77c-0.85,-0.65 -1.77,-1.33 -2.04,-1.52c-0.27,-0.19 -0.57,-0.4 -0.66,-0.45c-0.09,-0.06 -0.18,-0.13 -0.21,-0.16c-0.03,-0.03 -0.89,-0.62 -1.9,-1.29c-1.02,-0.67 -1.87,-1.23 -1.9,-1.23c-0.03,0 -0.2,-0.1 -0.39,-0.22c-0.17,-0.14 -1.12,-0.63 -2.09,-1.12c-0.97,-0.49 -1.86,-0.89 -1.95,-0.89c-0.1,0 -0.2,-0.05 -0.23,-0.1c-0.03,-0.06 -0.15,-0.1 -0.28,-0.1c-0.12,0 -0.27,-0.04 -0.33,-0.1c-0.06,-0.07 -0.87,-0.12 -2.12,-0.16c-1.11,-0.01 -2.17,-0.01 -2.33,0.02zm0,0" fill="#000000" fill-rule="nonzero" id="svg_4"/>
  <path d="m18.92,8.19c-0.34,0.09 -0.69,0.27 -0.89,0.47c-0.19,0.18 -0.39,0.43 -0.45,0.57c-0.05,0.15 -0.14,0.51 -0.2,0.81c-0.05,0.31 -0.14,0.74 -0.18,0.96c-0.04,0.23 -0.15,0.68 -0.2,1.02c-0.08,0.33 -0.17,0.83 -0.21,1.11c-0.05,0.28 -0.14,0.82 -0.2,1.22c-0.06,0.38 -0.15,0.93 -0.2,1.21c-0.05,0.28 -0.14,0.82 -0.21,1.22c-0.05,0.38 -0.15,0.93 -0.2,1.21c-0.05,0.28 -0.14,0.82 -0.2,1.22c-0.06,0.38 -0.16,0.96 -0.21,1.26c-0.05,0.31 -0.14,0.87 -0.19,1.27c-0.07,0.38 -0.16,0.98 -0.21,1.31c-0.05,0.34 -0.15,0.95 -0.21,1.37c-0.06,0.42 -0.14,1.03 -0.19,1.37c-0.06,0.33 -0.13,0.95 -0.2,1.36c-0.05,0.42 -0.16,1.04 -0.21,1.37c-0.06,0.34 -0.15,0.97 -0.2,1.42c-0.06,0.44 -0.15,1.12 -0.2,1.52c-0.05,0.38 -0.14,1.07 -0.21,1.52c-0.05,0.44 -0.14,1.08 -0.2,1.41c-0.06,0.34 -0.15,0.98 -0.2,1.42c-0.06,0.45 -0.15,1.12 -0.2,1.52c-0.05,0.38 -0.15,1.07 -0.2,1.52c-0.07,0.44 -0.16,1.12 -0.22,1.52c-0.06,0.38 -0.15,2.66 -0.2,5.06c-0.05,2.39 -0.13,7.31 -0.19,10.93c-0.05,3.62 -0.14,7.45 -0.2,8.51c-0.05,1.05 -0.14,2.24 -0.2,2.63c-0.06,0.39 -0.16,1.1 -0.22,1.57c-0.05,0.48 -0.14,1.18 -0.19,1.57c-0.05,0.39 -0.14,1.07 -0.21,1.52c-0.06,0.45 -0.15,1.13 -0.2,1.52c-0.05,0.38 -0.14,1.09 -0.19,1.57c-0.06,0.47 -0.16,1.17 -0.21,1.57c-0.05,0.38 -0.15,1.09 -0.22,1.57c-0.05,0.47 -0.14,1.17 -0.19,1.57c-0.05,0.38 -0.14,1.07 -0.2,1.52c-0.06,0.44 -0.15,1.12 -0.2,1.51c-0.05,0.39 -0.14,1.1 -0.2,1.57c-0.06,0.48 -0.16,1.18 -0.21,1.57c-0.05,0.39 -0.14,1.08 -0.2,1.52c-0.06,0.45 -0.15,1.12 -0.2,1.52c-0.05,0.38 -0.15,1.09 -0.22,1.57c-0.05,0.47 -0.14,1.17 -0.19,1.57c-0.05,0.38 -0.14,1.11 -0.2,1.62c-0.06,0.5 -0.15,1.32 -0.2,1.82c-0.06,0.5 -0.13,1.21 -0.16,1.57c-0.06,0.54 -0.02,0.86 0.2,1.72c0.14,0.59 0.37,1.41 0.51,1.82c0.14,0.42 0.38,1.17 0.52,1.68c0.14,0.49 0.29,0.95 0.34,1.01c0.05,0.05 0.32,0.83 0.61,1.72c0.3,0.89 0.57,1.66 0.61,1.72c0.04,0.05 0.22,0.56 0.4,1.12c0.19,0.55 0.37,1.05 0.41,1.11c0.04,0.05 0.13,0.28 0.2,0.5c0.07,0.23 0.16,0.45 0.2,0.51c0.05,0.05 0.16,0.36 0.26,0.66c0.1,0.3 0.23,0.69 0.3,0.86c0.07,0.16 0.35,0.85 0.61,1.52c0.26,0.67 0.57,1.41 0.67,1.64c0.11,0.24 0.19,0.47 0.19,0.5c0,0.05 0.06,0.2 0.13,0.34c0.08,0.14 0.19,0.43 0.27,0.66c0.08,0.22 0.17,0.44 0.21,0.5c0.04,0.05 0.13,0.29 0.2,0.51c0.07,0.22 0.16,0.44 0.2,0.51c0.04,0.05 0.13,0.28 0.21,0.5c0.07,0.22 0.21,0.54 0.3,0.71c0.09,0.16 0.23,0.49 0.3,0.71c0.07,0.22 0.22,0.54 0.31,0.71c0.09,0.16 0.23,0.48 0.3,0.71c0.07,0.22 0.25,0.62 0.41,0.91c0.14,0.27 0.32,0.66 0.38,0.86c0.07,0.19 0.32,0.76 0.58,1.26c0.25,0.5 0.45,0.95 0.45,1.02c0,0.05 0.47,1.03 1.04,2.17c0.56,1.15 1.12,2.21 1.24,2.38c0.12,0.17 0.29,0.47 0.38,0.66c0.09,0.19 0.23,0.43 0.32,0.51c0.09,0.08 0.17,0.19 0.16,0.25c0,0.05 0.09,0.19 0.2,0.3c0.11,0.11 0.21,0.25 0.21,0.31c-0.01,0.05 0.07,0.17 0.16,0.25c0.09,0.08 0.24,0.33 0.34,0.56c0.1,0.22 0.25,0.47 0.34,0.56c0.1,0.07 0.18,0.19 0.17,0.25c0,0.05 0.09,0.19 0.2,0.3c0.11,0.11 0.21,0.24 0.21,0.31c0,0.05 0.08,0.19 0.19,0.3c0.12,0.11 0.21,0.24 0.21,0.3c0,0.05 0.22,0.38 0.49,0.71c0.27,0.33 0.51,0.68 0.54,0.76c0.03,0.08 0.26,0.42 0.53,0.73c0.25,0.32 0.46,0.62 0.46,0.66c0,0.05 0.13,0.21 0.31,0.38c0.17,0.16 0.3,0.35 0.3,0.41c0,0.05 0.13,0.23 0.3,0.4c0.18,0.17 0.32,0.35 0.32,0.41c0,0.05 0.14,0.26 0.32,0.47c0.19,0.21 0.62,0.72 0.99,1.17c0.36,0.43 1.27,1.42 2.02,2.19c0.75,0.75 1.41,1.38 1.47,1.38c0.05,0 0.21,0.11 0.35,0.26c0.14,0.14 0.37,0.27 0.51,0.3c0.14,0.03 0.41,0.21 0.61,0.4c0.19,0.19 0.46,0.38 0.6,0.41c0.14,0.03 0.37,0.16 0.51,0.3c0.14,0.14 0.36,0.27 0.5,0.31c0.15,0.03 0.39,0.19 0.56,0.35c0.16,0.17 0.47,0.36 0.66,0.43c0.19,0.05 0.51,0.24 0.68,0.39c0.18,0.16 0.39,0.29 0.46,0.29c0.07,0 0.26,0.12 0.43,0.25c0.16,0.13 0.51,0.33 0.78,0.45c0.27,0.11 0.5,0.26 0.54,0.32c0.03,0.05 0.17,0.12 0.32,0.15c0.16,0.03 0.39,0.16 0.54,0.3c0.14,0.14 0.36,0.28 0.5,0.31c0.14,0.02 0.37,0.16 0.51,0.3c0.14,0.14 0.36,0.27 0.5,0.3c0.15,0.03 0.37,0.17 0.51,0.31c0.14,0.14 0.37,0.27 0.51,0.3c0.14,0.03 0.34,0.14 0.45,0.26c0.12,0.11 0.25,0.2 0.31,0.2c0.05,0 0.19,0.09 0.3,0.2c0.11,0.11 0.24,0.2 0.3,0.2c0.05,0 0.2,0.09 0.31,0.2c0.11,0.11 0.24,0.21 0.3,0.21c0.05,0 0.19,0.09 0.31,0.2c0.11,0.11 0.24,0.2 0.3,0.2c0.05,0 0.22,0.13 0.37,0.27c0.15,0.17 0.47,0.35 0.71,0.42c0.23,0.08 0.57,0.26 0.74,0.43c0.16,0.15 0.49,0.33 0.71,0.4c0.22,0.07 0.5,0.2 0.61,0.3c0.11,0.09 0.55,0.34 0.96,0.54c0.41,0.2 0.8,0.37 0.86,0.37c0.05,0 0.32,0.12 0.61,0.26c0.27,0.14 0.8,0.35 1.16,0.47c0.37,0.11 0.7,0.25 0.76,0.29c0.05,0.04 0.56,0.22 1.12,0.4c0.55,0.19 1.05,0.37 1.11,0.41c0.05,0.04 0.47,0.19 0.91,0.32c0.45,0.14 1.31,0.41 1.93,0.59c0.6,0.18 1.38,0.41 1.72,0.51c0.33,0.1 0.99,0.27 1.46,0.38c0.48,0.12 1.07,0.24 1.32,0.27c0.25,0.05 0.75,0.12 1.11,0.17c0.37,0.05 1.23,0.14 1.93,0.2c0.7,0.06 2.47,0.11 3.95,0.11c1.48,0 3.25,-0.05 3.94,-0.11c0.7,-0.06 1.56,-0.15 1.93,-0.2c0.36,-0.05 0.86,-0.12 1.11,-0.17c0.26,-0.03 0.84,-0.15 1.32,-0.27c0.48,-0.11 1.13,-0.28 1.47,-0.38c0.33,-0.1 1.1,-0.33 1.72,-0.51c0.61,-0.18 1.48,-0.45 1.92,-0.59c0.45,-0.13 0.85,-0.28 0.91,-0.32c0.05,-0.04 0.56,-0.22 1.12,-0.41c0.56,-0.18 1.05,-0.36 1.11,-0.4c0.05,-0.04 0.39,-0.18 0.76,-0.29c0.36,-0.12 0.88,-0.33 1.17,-0.47c0.27,-0.14 0.54,-0.26 0.6,-0.26c0.05,0 0.45,-0.17 0.86,-0.37c0.42,-0.2 0.85,-0.45 0.97,-0.54c0.1,-0.1 0.38,-0.23 0.6,-0.3c0.22,-0.07 0.54,-0.25 0.71,-0.4c0.16,-0.17 0.51,-0.35 0.74,-0.43c0.24,-0.07 0.57,-0.25 0.71,-0.42c0.15,-0.14 0.31,-0.27 0.37,-0.27c0.05,0 0.2,-0.09 0.31,-0.2c0.11,-0.11 0.24,-0.2 0.3,-0.2c0.05,0 0.19,-0.1 0.31,-0.21c0.11,-0.11 0.24,-0.2 0.3,-0.2c0.05,0 0.19,-0.09 0.3,-0.2c0.11,-0.11 0.24,-0.2 0.31,-0.2c0.05,0 0.19,-0.09 0.3,-0.2c0.11,-0.12 0.31,-0.23 0.45,-0.26c0.15,-0.03 0.37,-0.16 0.51,-0.3c0.14,-0.14 0.37,-0.28 0.51,-0.31c0.14,-0.03 0.36,-0.16 0.5,-0.3c0.14,-0.14 0.37,-0.28 0.51,-0.3c0.14,-0.03 0.36,-0.17 0.51,-0.31c0.14,-0.14 0.37,-0.27 0.52,-0.3c0.17,-0.03 0.31,-0.1 0.34,-0.15c0.03,-0.06 0.26,-0.21 0.52,-0.32c0.28,-0.12 0.62,-0.32 0.8,-0.45c0.16,-0.13 0.36,-0.25 0.42,-0.25c0.07,0 0.28,-0.13 0.45,-0.29c0.19,-0.15 0.5,-0.34 0.69,-0.39c0.2,-0.07 0.49,-0.26 0.66,-0.43c0.16,-0.16 0.42,-0.32 0.56,-0.35c0.14,-0.04 0.36,-0.17 0.5,-0.31c0.14,-0.14 0.37,-0.27 0.51,-0.3c0.14,-0.03 0.42,-0.22 0.61,-0.41c0.19,-0.19 0.46,-0.37 0.61,-0.4c0.14,-0.03 0.36,-0.16 0.5,-0.3c0.15,-0.15 0.29,-0.26 0.36,-0.26c0.05,0 0.71,-0.63 1.46,-1.38c0.75,-0.77 1.67,-1.76 2.03,-2.19c0.37,-0.45 0.8,-0.96 0.98,-1.17c0.18,-0.21 0.33,-0.42 0.33,-0.47c0,-0.06 0.14,-0.24 0.31,-0.41c0.17,-0.17 0.3,-0.35 0.3,-0.4c0,-0.06 0.13,-0.25 0.31,-0.41c0.17,-0.17 0.3,-0.33 0.3,-0.38c0,-0.04 0.21,-0.34 0.47,-0.66c0.26,-0.31 0.49,-0.65 0.52,-0.73c0.03,-0.08 0.28,-0.43 0.55,-0.76c0.26,-0.33 0.49,-0.66 0.49,-0.71c0,-0.06 0.09,-0.19 0.2,-0.3c0.11,-0.11 0.2,-0.25 0.2,-0.3c0,-0.07 0.09,-0.2 0.2,-0.31c0.12,-0.11 0.21,-0.25 0.21,-0.3c-0.02,-0.06 0.07,-0.18 0.16,-0.25c0.09,-0.09 0.24,-0.34 0.34,-0.56c0.1,-0.23 0.25,-0.48 0.35,-0.56c0.09,-0.08 0.17,-0.2 0.16,-0.25c0,-0.06 0.09,-0.2 0.2,-0.31c0.11,-0.11 0.2,-0.25 0.2,-0.3c-0.01,-0.06 0.07,-0.17 0.16,-0.25c0.1,-0.08 0.24,-0.32 0.33,-0.51c0.08,-0.19 0.25,-0.49 0.37,-0.66c0.12,-0.17 0.68,-1.23 1.25,-2.38c0.57,-1.14 1.03,-2.12 1.03,-2.17c0,-0.07 0.2,-0.52 0.46,-1.02c0.25,-0.5 0.51,-1.07 0.58,-1.26c0.05,-0.2 0.23,-0.59 0.38,-0.86c0.15,-0.29 0.33,-0.69 0.4,-0.91c0.07,-0.23 0.22,-0.55 0.31,-0.71c0.09,-0.17 0.23,-0.49 0.3,-0.71c0.07,-0.22 0.21,-0.55 0.3,-0.71c0.1,-0.17 0.24,-0.49 0.31,-0.71c0.07,-0.22 0.16,-0.45 0.2,-0.5c0.04,-0.07 0.14,-0.29 0.21,-0.51c0.07,-0.22 0.16,-0.46 0.2,-0.51c0.04,-0.06 0.13,-0.28 0.2,-0.5c0.07,-0.23 0.16,-0.46 0.2,-0.51c0.04,-0.06 0.11,-0.21 0.15,-0.35c0.04,-0.15 0.16,-0.44 0.26,-0.66c0.1,-0.23 0.39,-0.95 0.65,-1.62c0.27,-0.67 0.54,-1.36 0.61,-1.52c0.07,-0.17 0.21,-0.56 0.31,-0.86c0.1,-0.3 0.21,-0.61 0.25,-0.66c0.04,-0.06 0.13,-0.28 0.2,-0.51c0.07,-0.22 0.16,-0.45 0.2,-0.5c0.05,-0.06 0.23,-0.56 0.41,-1.11c0.18,-0.56 0.36,-1.07 0.41,-1.12c0.04,-0.06 0.31,-0.83 0.6,-1.72c0.29,-0.89 0.57,-1.67 0.61,-1.72c0.05,-0.06 0.2,-0.52 0.34,-1.01c0.15,-0.51 0.38,-1.26 0.52,-1.68c0.14,-0.41 0.38,-1.23 0.52,-1.82c0.21,-0.86 0.25,-1.18 0.2,-1.72c-0.04,-0.36 -0.11,-1.07 -0.16,-1.57c-0.06,-0.5 -0.15,-1.32 -0.2,-1.82c-0.07,-0.51 -0.16,-1.24 -0.21,-1.62c-0.05,-0.4 -0.14,-1.1 -0.19,-1.57c-0.06,-0.48 -0.16,-1.19 -0.21,-1.57c-0.05,-0.4 -0.14,-1.07 -0.21,-1.52c-0.06,-0.44 -0.15,-1.13 -0.2,-1.52c-0.05,-0.39 -0.15,-1.09 -0.21,-1.57c-0.05,-0.47 -0.14,-1.18 -0.19,-1.57c-0.05,-0.39 -0.15,-1.07 -0.21,-1.51c-0.06,-0.45 -0.15,-1.14 -0.2,-1.52c-0.05,-0.4 -0.14,-1.1 -0.19,-1.57c-0.06,-0.48 -0.16,-1.19 -0.21,-1.57c-0.06,-0.4 -0.16,-1.1 -0.22,-1.57c-0.05,-0.48 -0.14,-1.19 -0.19,-1.57c-0.05,-0.39 -0.14,-1.07 -0.2,-1.52c-0.06,-0.45 -0.15,-1.13 -0.2,-1.52c-0.05,-0.39 -0.14,-1.09 -0.19,-1.57c-0.07,-0.47 -0.17,-1.18 -0.23,-1.57c-0.06,-0.39 -0.15,-1.58 -0.2,-2.63c-0.05,-1.06 -0.14,-4.89 -0.19,-8.51c-0.06,-3.62 -0.15,-8.54 -0.2,-10.93c-0.05,-2.4 -0.14,-4.68 -0.2,-5.06c-0.06,-0.4 -0.15,-1.08 -0.21,-1.52c-0.06,-0.45 -0.15,-1.14 -0.2,-1.52c-0.05,-0.4 -0.14,-1.07 -0.21,-1.52c-0.05,-0.44 -0.14,-1.08 -0.2,-1.42c-0.06,-0.33 -0.15,-0.97 -0.2,-1.41c-0.06,-0.45 -0.15,-1.14 -0.2,-1.52c-0.05,-0.4 -0.14,-1.08 -0.21,-1.52c-0.05,-0.45 -0.14,-1.08 -0.2,-1.42c-0.05,-0.33 -0.15,-0.95 -0.21,-1.37c-0.06,-0.41 -0.14,-1.03 -0.19,-1.36c-0.05,-0.34 -0.13,-0.95 -0.2,-1.37c-0.06,-0.42 -0.16,-1.03 -0.21,-1.37c-0.05,-0.33 -0.14,-0.93 -0.2,-1.31c-0.06,-0.4 -0.14,-0.96 -0.19,-1.27c-0.05,-0.3 -0.15,-0.88 -0.22,-1.26c-0.06,-0.4 -0.15,-0.94 -0.2,-1.22c-0.05,-0.28 -0.14,-0.83 -0.2,-1.21c-0.06,-0.4 -0.15,-0.94 -0.2,-1.22c-0.05,-0.28 -0.14,-0.83 -0.21,-1.21c-0.06,-0.4 -0.15,-0.94 -0.2,-1.22c-0.04,-0.28 -0.13,-0.78 -0.2,-1.11c-0.06,-0.34 -0.16,-0.79 -0.2,-1.02c-0.04,-0.22 -0.13,-0.65 -0.18,-0.96c-0.07,-0.3 -0.16,-0.66 -0.21,-0.81c-0.06,-0.14 -0.25,-0.39 -0.44,-0.57c-0.24,-0.23 -0.54,-0.37 -1.05,-0.49c-0.46,-0.12 -0.88,-0.15 -1.21,-0.11c-0.29,0.03 -0.78,0.1 -1.11,0.15c-0.34,0.05 -0.89,0.19 -1.22,0.31c-0.33,0.12 -0.84,0.32 -1.11,0.46c-0.29,0.13 -0.58,0.24 -0.66,0.24c-0.08,0 -0.21,0.07 -0.26,0.14c-0.07,0.07 -0.47,0.31 -0.91,0.53c-0.43,0.22 -0.81,0.44 -0.82,0.48c-0.02,0.05 -0.23,0.17 -0.47,0.27c-0.23,0.1 -0.5,0.26 -0.58,0.36c-0.08,0.09 -0.2,0.16 -0.25,0.16c-0.06,0 -0.17,0.06 -0.26,0.15c-0.08,0.09 -0.33,0.25 -0.55,0.35c-0.23,0.09 -0.52,0.3 -0.66,0.45c-0.14,0.15 -0.3,0.26 -0.36,0.26c-0.05,0 -0.19,0.09 -0.3,0.2c-0.11,0.12 -0.25,0.21 -0.3,0.21c-0.06,0 -0.2,0.09 -0.31,0.2c-0.11,0.11 -0.25,0.2 -0.3,0.2c-0.06,0 -0.24,0.13 -0.41,0.3c-0.17,0.18 -0.35,0.31 -0.4,0.31c-0.06,0 -0.19,0.09 -0.3,0.2c-0.11,0.11 -0.26,0.21 -0.31,0.21c-0.06,0 -0.24,0.12 -0.4,0.3c-0.17,0.17 -0.36,0.3 -0.41,0.3c-0.06,0 -0.24,0.13 -0.4,0.31c-0.18,0.17 -0.35,0.3 -0.41,0.3c-0.06,0 -0.24,0.13 -0.4,0.3c-0.17,0.18 -0.36,0.31 -0.41,0.31c-0.06,0 -0.28,0.18 -0.5,0.4c-0.22,0.22 -0.46,0.41 -0.51,0.41c-0.06,0 -0.24,0.13 -0.41,0.3c-0.17,0.17 -0.35,0.3 -0.4,0.3c-0.06,0 -0.24,0.14 -0.4,0.31c-0.18,0.17 -0.36,0.3 -0.41,0.3c-0.06,0 -0.33,0.23 -0.61,0.51c-0.28,0.28 -0.54,0.5 -0.59,0.5c-0.04,0 -0.46,0.34 -0.96,0.75c-0.48,0.41 -0.95,0.83 -1.03,0.91c-0.08,0.09 -0.18,0.18 -0.23,0.17c-0.04,0 -0.33,0.21 -0.64,0.47c-0.31,0.28 -0.87,0.77 -1.23,1.11c-0.38,0.35 -0.73,0.65 -0.79,0.65c-0.05,0 -0.33,0.22 -0.6,0.5c-0.29,0.28 -0.56,0.51 -0.61,0.52c-0.06,0 -0.39,0.26 -0.74,0.57c-0.35,0.32 -1.04,0.96 -1.52,1.41c-0.48,0.47 -0.93,0.84 -0.98,0.84c-0.06,0 -0.33,0.23 -0.61,0.51c-0.28,0.28 -0.55,0.5 -0.6,0.5c-0.07,0 -0.22,0.11 -0.36,0.27c-0.14,0.14 -0.46,0.35 -0.71,0.46c-0.38,0.18 -0.57,0.2 -1.21,0.15c-0.42,-0.05 -1.24,-0.12 -1.82,-0.17c-0.59,-0.06 -1.68,-0.14 -2.43,-0.2c-0.75,-0.06 -1.9,-0.15 -2.54,-0.2c-0.64,-0.06 -2,-0.15 -3.03,-0.22c-1.04,-0.05 -4.63,-0.1 -8,-0.1c-3.38,0 -6.97,0.05 -8,0.1c-1.04,0.07 -2.4,0.16 -3.04,0.22c-0.64,0.05 -1.78,0.14 -2.53,0.2c-0.75,0.06 -1.84,0.14 -2.43,0.2c-0.59,0.05 -1.41,0.12 -1.82,0.17c-0.64,0.05 -0.83,0.03 -1.22,-0.15c-0.25,-0.11 -0.57,-0.32 -0.71,-0.46c-0.14,-0.16 -0.3,-0.27 -0.35,-0.27c-0.06,0 -0.33,-0.22 -0.61,-0.5c-0.28,-0.28 -0.56,-0.51 -0.61,-0.51c-0.06,0 -0.49,-0.37 -0.98,-0.84c-0.47,-0.45 -1.16,-1.09 -1.52,-1.41c-0.34,-0.31 -0.68,-0.57 -0.74,-0.57c-0.06,-0.01 -0.33,-0.24 -0.6,-0.52c-0.29,-0.28 -0.56,-0.5 -0.61,-0.5c-0.06,0 -0.41,-0.3 -0.78,-0.65c-0.36,-0.34 -0.92,-0.83 -1.24,-1.11c-0.31,-0.26 -0.59,-0.47 -0.64,-0.47c-0.04,0.01 -0.15,-0.08 -0.23,-0.17c-0.08,-0.08 -0.54,-0.5 -1.04,-0.91c-0.48,-0.41 -0.91,-0.75 -0.96,-0.75c-0.04,0 -0.31,-0.22 -0.58,-0.5c-0.28,-0.28 -0.55,-0.51 -0.6,-0.51c-0.07,0 -0.25,-0.13 -0.41,-0.3c-0.17,-0.17 -0.36,-0.31 -0.41,-0.31c-0.06,0 -0.24,-0.13 -0.4,-0.3c-0.18,-0.17 -0.35,-0.3 -0.41,-0.3c-0.06,0 -0.28,-0.19 -0.5,-0.41c-0.23,-0.22 -0.46,-0.4 -0.51,-0.4c-0.06,0 -0.24,-0.13 -0.4,-0.31c-0.18,-0.17 -0.36,-0.3 -0.41,-0.3c-0.06,0 -0.24,-0.13 -0.4,-0.3c-0.17,-0.18 -0.36,-0.31 -0.41,-0.31c-0.06,0 -0.24,-0.13 -0.4,-0.3c-0.18,-0.18 -0.36,-0.3 -0.41,-0.3c-0.06,0 -0.19,-0.1 -0.3,-0.21c-0.12,-0.11 -0.26,-0.2 -0.31,-0.2c-0.06,0 -0.24,-0.13 -0.4,-0.31c-0.17,-0.17 -0.35,-0.3 -0.41,-0.3c-0.06,0 -0.19,-0.09 -0.3,-0.2c-0.11,-0.11 -0.25,-0.2 -0.3,-0.2c-0.06,0 -0.2,-0.09 -0.31,-0.21c-0.11,-0.11 -0.25,-0.2 -0.3,-0.2c-0.06,0 -0.21,-0.11 -0.36,-0.26c-0.14,-0.15 -0.43,-0.36 -0.66,-0.45c-0.22,-0.1 -0.47,-0.26 -0.55,-0.35c-0.08,-0.09 -0.2,-0.15 -0.25,-0.15c-0.06,0 -0.18,-0.07 -0.26,-0.16c-0.08,-0.1 -0.34,-0.26 -0.58,-0.36c-0.24,-0.1 -0.45,-0.22 -0.47,-0.27c-0.01,-0.04 -0.39,-0.26 -0.82,-0.48c-0.44,-0.22 -0.84,-0.46 -0.9,-0.53c-0.06,-0.07 -0.19,-0.14 -0.26,-0.14c-0.09,0 -0.39,-0.11 -0.66,-0.24c-0.28,-0.14 -0.78,-0.34 -1.12,-0.46c-0.33,-0.12 -0.88,-0.26 -1.21,-0.31c-0.33,-0.06 -0.9,-0.12 -1.27,-0.14c-0.39,-0.02 -0.88,0.03 -1.21,0.12zm0,0" fill="#eba43b" fill-rule="nonzero" id="svg_5"/>
  <path d="m24.18,17.83c-0.14,0.04 -0.49,0.21 -0.8,0.37c-0.39,0.22 -0.63,0.45 -0.91,0.85c-0.19,0.31 -0.42,0.74 -0.51,0.97c-0.08,0.22 -0.19,0.95 -0.24,1.62c-0.04,0.66 -0.12,2.31 -0.18,3.64c-0.05,1.34 -0.1,4.93 -0.1,8c0,3.06 0.05,6.55 0.1,7.75c0.06,1.19 0.15,2.81 0.2,3.59c0.06,0.78 0.14,1.78 0.19,2.23c0.05,0.44 0.2,1.1 0.32,1.47c0.12,0.36 0.38,0.84 0.55,1.05c0.18,0.21 0.53,0.49 0.8,0.63c0.27,0.13 0.61,0.24 0.79,0.24c0.16,0 0.42,-0.06 0.57,-0.14c0.17,-0.07 0.49,-0.28 0.74,-0.45c0.25,-0.17 2.26,-2.13 4.46,-4.35c2.2,-2.23 4.51,-4.62 5.14,-5.31c0.62,-0.68 1.42,-1.58 1.77,-1.98c0.35,-0.4 0.82,-0.94 1.06,-1.22c0.23,-0.26 0.55,-0.68 0.73,-0.93c0.17,-0.25 0.39,-0.71 0.51,-1.01c0.11,-0.3 0.2,-0.73 0.2,-0.94c0,-0.21 -0.07,-0.53 -0.16,-0.71c-0.09,-0.17 -0.29,-0.48 -0.43,-0.66c-0.15,-0.18 -0.63,-0.74 -1.08,-1.24c-0.44,-0.49 -1.28,-1.42 -1.87,-2.07c-0.59,-0.65 -1.68,-1.83 -2.43,-2.63c-0.75,-0.81 -1.8,-1.95 -2.33,-2.53c-0.53,-0.59 -1.29,-1.43 -1.68,-1.86c-0.39,-0.42 -0.79,-0.89 -0.89,-1.03c-0.09,-0.14 -0.77,-0.87 -1.51,-1.62c-0.8,-0.81 -1.54,-1.46 -1.8,-1.59c-0.25,-0.12 -0.56,-0.22 -0.7,-0.22c-0.14,0 -0.37,0.04 -0.51,0.08zm88.51,0.13c-0.26,0.13 -1.04,0.83 -1.81,1.6c-0.74,0.75 -1.42,1.48 -1.5,1.62c-0.11,0.14 -0.5,0.61 -0.9,1.03c-0.39,0.43 -1.15,1.27 -1.68,1.86c-0.52,0.58 -1.58,1.72 -2.33,2.53c-0.74,0.8 -1.84,1.98 -2.43,2.63c-0.58,0.65 -1.42,1.58 -1.87,2.07c-0.44,0.5 -0.93,1.06 -1.07,1.24c-0.14,0.18 -0.35,0.49 -0.44,0.66c-0.09,0.18 -0.16,0.5 -0.16,0.71c0,0.21 0.09,0.64 0.2,0.94c0.12,0.3 0.35,0.76 0.52,1.01c0.17,0.25 0.49,0.67 0.73,0.93c0.23,0.28 0.71,0.82 1.05,1.22c0.36,0.4 1.16,1.3 1.77,1.98c0.63,0.69 2.95,3.08 5.15,5.31c2.19,2.22 4.2,4.18 4.45,4.35c0.26,0.17 0.58,0.38 0.73,0.45c0.16,0.08 0.42,0.14 0.59,0.14c0.16,0 0.51,-0.11 0.78,-0.24c0.27,-0.14 0.62,-0.42 0.81,-0.63c0.17,-0.21 0.42,-0.69 0.54,-1.05c0.13,-0.37 0.27,-1.03 0.32,-1.47c0.05,-0.45 0.13,-1.45 0.19,-2.23c0.05,-0.78 0.14,-2.4 0.2,-3.59c0.05,-1.2 0.1,-4.69 0.1,-7.75c0,-3.07 -0.05,-6.66 -0.1,-8c-0.06,-1.33 -0.14,-2.98 -0.18,-3.64c-0.05,-0.67 -0.15,-1.4 -0.24,-1.62c-0.08,-0.23 -0.32,-0.66 -0.51,-0.97c-0.27,-0.41 -0.51,-0.63 -0.96,-0.88c-0.34,-0.18 -0.8,-0.35 -1.05,-0.38c-0.36,-0.05 -0.56,-0.01 -0.9,0.17zm-63.63,34.38c-0.05,0.04 -0.45,0.11 -0.91,0.15c-0.46,0.03 -1.03,0.11 -1.29,0.16c-0.25,0.05 -0.63,0.17 -0.86,0.26c-0.22,0.1 -0.68,0.32 -1.01,0.47c-0.38,0.19 -0.82,0.51 -1.19,0.9c-0.42,0.44 -0.56,0.67 -0.52,0.79c0.04,0.1 0.11,0.38 0.17,0.64c0.05,0.25 0.13,1.09 0.18,1.87c0.03,0.78 0.12,1.6 0.17,1.82c0.06,0.23 0.2,0.68 0.31,1.01c0.1,0.34 0.34,0.91 0.53,1.27c0.18,0.37 0.44,0.81 0.59,0.99c0.15,0.19 0.49,0.59 0.77,0.9c0.28,0.31 0.73,0.71 1.02,0.89c0.27,0.18 0.75,0.45 1.06,0.61c0.3,0.15 1.26,0.74 2.12,1.32c0.87,0.57 1.86,1.17 2.2,1.36c0.54,0.26 0.76,0.31 1.35,0.31c0.5,0 0.82,-0.06 1.08,-0.19c0.21,-0.12 0.62,-0.44 0.9,-0.74c0.29,-0.29 0.66,-0.77 0.84,-1.04c0.18,-0.29 0.39,-0.75 0.48,-1.02c0.12,-0.4 0.14,-0.92 0.11,-2.58c-0.02,-1.14 -0.09,-2.28 -0.14,-2.53c-0.06,-0.25 -0.18,-0.65 -0.27,-0.89c-0.1,-0.23 -0.24,-0.61 -0.32,-0.83c-0.08,-0.22 -0.32,-0.76 -0.55,-1.2c-0.21,-0.42 -0.51,-0.96 -0.67,-1.18c-0.15,-0.22 -0.41,-0.58 -0.58,-0.79c-0.18,-0.21 -0.47,-0.53 -0.64,-0.71c-0.18,-0.18 -0.54,-0.5 -0.81,-0.74c-0.27,-0.23 -0.79,-0.57 -1.15,-0.76c-0.49,-0.25 -0.85,-0.35 -1.42,-0.41c-0.41,-0.04 -0.92,-0.11 -1.11,-0.13c-0.2,-0.05 -0.4,-0.03 -0.44,0.02zm39.21,0.03c-0.08,0.05 -0.43,0.09 -0.79,0.09c-0.51,0 -0.75,0.07 -1.36,0.37c-0.4,0.21 -0.96,0.56 -1.23,0.79c-0.26,0.24 -0.62,0.56 -0.81,0.74c-0.17,0.18 -0.45,0.5 -0.63,0.71c-0.18,0.21 -0.44,0.57 -0.59,0.79c-0.15,0.22 -0.46,0.76 -0.67,1.18c-0.23,0.44 -0.47,0.98 -0.56,1.22c-0.09,0.24 -0.23,0.62 -0.31,0.84c-0.09,0.22 -0.2,0.61 -0.27,0.86c-0.05,0.25 -0.12,1.39 -0.14,2.53c-0.03,1.66 -0.01,2.18 0.11,2.58c0.1,0.27 0.31,0.73 0.48,1.02c0.18,0.27 0.56,0.75 0.84,1.04c0.29,0.3 0.69,0.62 0.89,0.74c0.27,0.13 0.6,0.19 1.09,0.19c0.59,0 0.82,-0.05 1.34,-0.31c0.36,-0.19 1.35,-0.79 2.21,-1.36c0.86,-0.58 1.82,-1.17 2.13,-1.32c0.3,-0.16 0.77,-0.43 1.06,-0.61c0.27,-0.18 0.73,-0.58 1.01,-0.89c0.27,-0.31 0.63,-0.71 0.77,-0.9c0.15,-0.18 0.41,-0.62 0.6,-0.99c0.18,-0.36 0.42,-0.93 0.52,-1.27c0.11,-0.33 0.26,-0.78 0.31,-1.01c0.06,-0.22 0.14,-1.04 0.18,-1.82c0.04,-0.78 0.12,-1.62 0.17,-1.87c0.06,-0.26 0.13,-0.54 0.17,-0.64c0.05,-0.12 -0.09,-0.35 -0.52,-0.79c-0.37,-0.39 -0.8,-0.71 -1.19,-0.9c-0.33,-0.15 -0.79,-0.37 -1.01,-0.47c-0.22,-0.09 -0.61,-0.21 -0.86,-0.26c-0.25,-0.05 -0.82,-0.14 -1.26,-0.19c-0.45,-0.04 -0.98,-0.1 -1.17,-0.14c-0.19,-0.03 -0.42,-0.02 -0.51,0.05zm-63.23,28.12c-0.35,0.15 -0.77,0.39 -0.96,0.53c-0.18,0.14 -0.98,0.87 -1.79,1.62c-0.8,0.75 -2.31,2.22 -3.35,3.26c-1.05,1.03 -2.41,2.45 -3.04,3.14c-0.63,0.69 -1.36,1.49 -1.62,1.79c-0.26,0.3 -0.64,0.79 -0.83,1.07c-0.19,0.3 -0.57,0.85 -0.82,1.23c-0.25,0.38 -0.85,1.28 -1.33,2.01c-0.47,0.72 -1,1.58 -1.17,1.9c-0.18,0.32 -0.33,0.69 -0.33,0.81c0,0.16 0.24,0.45 0.75,0.94c0.43,0.38 1.15,1.04 1.61,1.45c0.46,0.39 1.03,0.9 1.27,1.11c0.24,0.2 0.44,0.44 0.43,0.5c0,0.07 0.09,0.32 0.19,0.55c0.11,0.24 0.31,0.73 0.47,1.1c0.14,0.36 0.47,1.11 0.72,1.67c0.26,0.55 0.81,1.76 1.24,2.68c0.42,0.91 2.15,4.42 3.84,7.8c1.69,3.37 3.31,6.55 3.59,7.05c0.29,0.52 0.67,1.19 0.84,1.47c0.17,0.29 0.48,0.74 0.66,0.99c0.19,0.26 0.52,0.71 0.73,1.02c0.21,0.3 0.54,0.76 0.73,1.01c0.19,0.25 0.46,0.62 0.6,0.81c0.15,0.19 0.39,0.52 0.54,0.72c0.15,0.19 0.4,0.53 0.58,0.76c0.16,0.22 0.46,0.59 0.66,0.84c0.19,0.24 0.55,0.68 0.8,0.98c0.26,0.29 0.66,0.8 0.92,1.11c0.25,0.32 0.72,0.88 1.03,1.25c0.32,0.36 0.96,1.09 1.42,1.62c0.46,0.52 1.46,1.57 2.21,2.33c0.76,0.76 1.73,1.66 2.13,2.01c0.42,0.35 0.96,0.8 1.22,1.02c0.26,0.2 0.65,0.5 0.86,0.67c0.21,0.17 0.5,0.39 0.64,0.48c0.15,0.1 0.46,0.34 0.71,0.53c0.26,0.2 0.62,0.47 0.81,0.61c0.2,0.14 0.56,0.42 0.81,0.61c0.26,0.19 0.99,0.7 1.64,1.14c0.66,0.43 1.5,0.98 1.88,1.22c0.38,0.23 1.06,0.65 1.51,0.91c0.46,0.26 0.98,0.57 1.17,0.67c0.18,0.11 0.72,0.43 1.19,0.7c0.48,0.27 2.14,1.13 3.7,1.89c1.56,0.77 3.51,1.71 4.35,2.11c0.83,0.38 1.93,0.89 2.43,1.11c0.5,0.23 1.39,0.62 1.98,0.88c0.59,0.26 1.52,0.69 2.07,0.94c0.56,0.25 1.42,0.63 1.93,0.85c0.49,0.23 1.24,0.56 1.64,0.75l0.74,0.35c1.13,-0.54 1.87,-0.87 2.38,-1.1c0.49,-0.22 1.37,-0.61 1.94,-0.87c0.58,-0.25 1.51,-0.68 2.08,-0.93c0.57,-0.25 1.44,-0.64 1.95,-0.87c0.5,-0.22 1.59,-0.73 2.43,-1.11c0.83,-0.4 2.79,-1.34 4.35,-2.11c1.56,-0.76 3.22,-1.62 3.7,-1.89c0.47,-0.27 1.01,-0.59 1.19,-0.7c0.2,-0.1 0.71,-0.41 1.17,-0.67c0.45,-0.26 1.13,-0.68 1.52,-0.91c0.37,-0.24 1.21,-0.79 1.87,-1.22c0.65,-0.44 1.39,-0.95 1.64,-1.14c0.26,-0.19 0.62,-0.47 0.81,-0.61c0.19,-0.14 0.56,-0.41 0.81,-0.61c0.25,-0.19 0.57,-0.43 0.71,-0.53c0.14,-0.09 0.43,-0.31 0.65,-0.48c0.21,-0.17 0.6,-0.47 0.86,-0.67c0.25,-0.22 0.8,-0.67 1.21,-1.02c0.41,-0.35 1.37,-1.25 2.13,-2.01c0.76,-0.76 1.75,-1.81 2.22,-2.33c0.45,-0.53 1.09,-1.26 1.41,-1.62c0.32,-0.37 0.79,-0.93 1.04,-1.25c0.25,-0.31 0.66,-0.82 0.91,-1.11c0.25,-0.3 0.62,-0.74 0.81,-0.98c0.19,-0.25 0.48,-0.62 0.65,-0.84c0.17,-0.23 0.43,-0.57 0.58,-0.76c0.15,-0.2 0.4,-0.53 0.54,-0.72c0.14,-0.19 0.42,-0.56 0.61,-0.81c0.19,-0.25 0.51,-0.71 0.73,-1.01c0.21,-0.31 0.53,-0.76 0.72,-1.02c0.19,-0.25 0.49,-0.7 0.66,-0.99c0.18,-0.28 0.55,-0.95 0.84,-1.47c0.29,-0.5 1.91,-3.68 3.6,-7.05c1.69,-3.38 3.41,-6.89 3.83,-7.8c0.43,-0.92 0.99,-2.13 1.24,-2.68c0.26,-0.56 0.58,-1.31 0.73,-1.67c0.15,-0.37 0.35,-0.86 0.47,-1.1c0.1,-0.23 0.19,-0.48 0.19,-0.55c-0.01,-0.06 0.18,-0.3 0.42,-0.5c0.25,-0.21 0.81,-0.72 1.28,-1.11c0.46,-0.41 1.17,-1.07 1.6,-1.45c0.52,-0.49 0.75,-0.78 0.75,-0.94c0,-0.12 -0.14,-0.49 -0.32,-0.81c-0.18,-0.32 -0.7,-1.18 -1.18,-1.9c-0.48,-0.73 -1.07,-1.63 -1.33,-2.01c-0.25,-0.38 -0.62,-0.93 -0.81,-1.23c-0.2,-0.28 -0.58,-0.77 -0.84,-1.07c-0.26,-0.3 -0.99,-1.1 -1.62,-1.79c-0.62,-0.69 -1.99,-2.11 -3.03,-3.14c-1.05,-1.04 -2.56,-2.51 -3.35,-3.26c-0.82,-0.75 -1.63,-1.49 -1.82,-1.63c-0.18,-0.15 -0.63,-0.4 -0.99,-0.54c-0.61,-0.24 -0.78,-0.26 -2.1,-0.26c-0.8,0 -1.54,0.04 -1.68,0.09c-0.12,0.05 -0.33,0.12 -0.47,0.15c-0.14,0.03 -0.8,0.39 -1.47,0.78c-0.67,0.41 -1.42,0.88 -1.67,1.06c-0.25,0.17 -0.96,0.61 -1.57,0.98c-0.62,0.36 -2.04,1.12 -3.17,1.69c-1.12,0.56 -2.22,1.08 -2.43,1.16c-0.2,0.08 -0.76,0.29 -1.24,0.47c-0.47,0.18 -1.59,0.57 -2.48,0.88c-0.89,0.3 -1.68,0.63 -1.75,0.72c-0.07,0.09 -0.12,0.27 -0.12,0.39c0,0.13 0.15,0.54 0.35,0.91c0.18,0.39 0.44,0.87 0.57,1.07c0.13,0.2 0.36,0.57 0.5,0.8c0.14,0.23 0.46,0.75 0.72,1.14c0.25,0.39 0.49,0.85 0.53,1.02c0.04,0.17 0.11,0.44 0.14,0.6l0.07,0.29c-0.7,-0.09 -1.14,-0.16 -1.41,-0.22c-0.28,-0.05 -0.69,-0.14 -0.91,-0.19c-0.23,-0.05 -1.14,-0.34 -2.03,-0.66c-0.89,-0.3 -2.18,-0.76 -2.88,-1.01c-0.7,-0.26 -1.8,-0.65 -2.43,-0.88c-0.64,-0.24 -1.46,-0.52 -1.83,-0.63c-0.36,-0.11 -0.74,-0.22 -0.86,-0.26c-0.11,-0.03 -0.36,-0.17 -0.55,-0.31c-0.2,-0.13 -0.57,-0.42 -0.85,-0.66c-0.26,-0.23 -0.71,-0.63 -1.01,-0.89c-0.28,-0.25 -0.89,-0.67 -1.33,-0.94c-0.45,-0.25 -0.87,-0.46 -0.94,-0.46c-0.07,0 -0.37,-0.12 -0.66,-0.26c-0.29,-0.16 -0.8,-0.37 -1.14,-0.48c-0.33,-0.11 -0.88,-0.24 -1.21,-0.31c-0.37,-0.06 -3.06,-0.1 -6.63,-0.1c-3.58,0 -6.27,0.04 -6.63,0.1c-0.34,0.07 -0.89,0.2 -1.22,0.31c-0.33,0.11 -0.85,0.32 -1.14,0.48c-0.29,0.14 -0.59,0.26 -0.66,0.26c-0.06,0 -0.49,0.21 -0.93,0.46c-0.45,0.27 -1.06,0.69 -1.34,0.94c-0.3,0.26 -0.75,0.66 -1.01,0.89c-0.28,0.24 -0.65,0.53 -0.84,0.66c-0.2,0.14 -0.45,0.28 -0.56,0.31c-0.11,0.04 -0.5,0.15 -0.86,0.26c-0.37,0.11 -1.19,0.39 -1.82,0.63c-0.64,0.23 -1.73,0.62 -2.43,0.88c-0.7,0.25 -2,0.71 -2.89,1.01c-0.89,0.32 -1.8,0.61 -2.02,0.66c-0.23,0.05 -0.64,0.14 -0.92,0.19c-0.28,0.06 -0.7,0.13 -0.96,0.17l-0.45,0.05c0.11,-0.45 0.17,-0.72 0.21,-0.89c0.04,-0.17 0.29,-0.63 0.54,-1.02c0.25,-0.39 0.57,-0.91 0.71,-1.14c0.15,-0.23 0.37,-0.6 0.5,-0.8c0.13,-0.2 0.39,-0.68 0.58,-1.07c0.19,-0.37 0.34,-0.78 0.34,-0.91c0,-0.12 -0.05,-0.3 -0.12,-0.39c-0.07,-0.09 -0.86,-0.42 -1.75,-0.72c-0.89,-0.31 -2.01,-0.7 -2.48,-0.88c-0.48,-0.18 -1.03,-0.39 -1.25,-0.47c-0.2,-0.08 -1.29,-0.6 -2.43,-1.16c-1.12,-0.57 -2.55,-1.33 -3.16,-1.69c-0.61,-0.37 -1.31,-0.81 -1.57,-0.98c-0.25,-0.18 -1,-0.65 -1.66,-1.06c-0.67,-0.39 -1.33,-0.75 -1.47,-0.78c-0.14,-0.03 -0.36,-0.1 -0.49,-0.15c-0.12,-0.05 -0.89,-0.09 -1.72,-0.08c-1.38,0.01 -1.53,0.03 -2.1,0.27zm0,0" fill="#ffffff" fill-rule="nonzero" id="svg_6"/>
  <path d="m41.45,67.95c-0.4,0.1 -1.06,0.35 -1.47,0.57c-0.42,0.2 -1.05,0.64 -1.42,0.97c-0.36,0.32 -0.78,0.72 -0.94,0.87c-0.15,0.16 -0.5,0.53 -0.77,0.84c-0.28,0.3 -0.61,0.8 -0.76,1.08c-0.14,0.29 -0.26,0.63 -0.26,0.74c0,0.11 0.12,0.44 0.26,0.73c0.15,0.29 0.56,0.85 0.91,1.25c0.36,0.38 0.74,0.8 0.87,0.94c0.13,0.12 0.53,0.48 0.89,0.81c0.37,0.32 0.84,0.71 1.07,0.85c0.22,0.15 0.81,0.46 1.31,0.7c0.8,0.38 1.04,0.44 1.93,0.51c0.58,0.05 1.36,0.04 1.87,-0.02c0.47,-0.05 1.04,-0.13 1.26,-0.18c0.23,-0.05 0.77,-0.25 1.22,-0.46c0.45,-0.2 0.85,-0.36 0.91,-0.36c0.05,0 0.19,-0.1 0.31,-0.22c0.11,-0.12 0.4,-0.33 0.65,-0.45c0.26,-0.13 0.76,-0.53 1.14,-0.9c0.48,-0.48 0.69,-0.74 0.69,-0.92c0,-0.14 -0.17,-0.68 -0.37,-1.19c-0.2,-0.51 -0.52,-1.23 -0.7,-1.59c-0.18,-0.37 -0.52,-0.96 -0.77,-1.32c-0.24,-0.37 -0.55,-0.81 -0.69,-0.99c-0.15,-0.19 -0.42,-0.52 -0.61,-0.75c-0.19,-0.23 -0.7,-0.64 -1.12,-0.91c-0.42,-0.29 -1,-0.57 -1.31,-0.65c-0.37,-0.1 -1.06,-0.15 -1.98,-0.13c-1,0 -1.63,0.06 -2.12,0.18zm51.03,-0.04c-0.29,0.07 -0.85,0.35 -1.27,0.64c-0.41,0.27 -0.92,0.68 -1.11,0.91c-0.19,0.23 -0.47,0.56 -0.61,0.75c-0.14,0.18 -0.45,0.62 -0.7,0.99c-0.24,0.36 -0.59,0.95 -0.77,1.32c-0.18,0.36 -0.5,1.08 -0.7,1.59c-0.2,0.51 -0.36,1.05 -0.36,1.19c0,0.18 0.2,0.44 0.68,0.92c0.38,0.37 0.89,0.77 1.14,0.9c0.26,0.12 0.55,0.33 0.66,0.45c0.11,0.12 0.24,0.22 0.3,0.22c0.05,0 0.47,0.16 0.91,0.36c0.45,0.21 0.99,0.41 1.22,0.46c0.22,0.05 0.79,0.13 1.26,0.18c0.51,0.06 1.29,0.07 1.88,0.02c0.89,-0.07 1.12,-0.13 1.92,-0.51c0.5,-0.24 1.09,-0.55 1.32,-0.7c0.22,-0.14 0.7,-0.53 1.06,-0.85c0.37,-0.33 0.76,-0.69 0.89,-0.81c0.13,-0.14 0.52,-0.56 0.87,-0.94c0.36,-0.4 0.76,-0.96 0.91,-1.25c0.15,-0.29 0.27,-0.62 0.27,-0.73c0,-0.11 -0.12,-0.45 -0.27,-0.74c-0.15,-0.28 -0.48,-0.78 -0.76,-1.08c-0.27,-0.31 -0.61,-0.68 -0.77,-0.84c-0.16,-0.15 -0.57,-0.55 -0.94,-0.87c-0.36,-0.33 -1,-0.77 -1.42,-0.97c-0.41,-0.22 -1.1,-0.47 -1.51,-0.57c-0.57,-0.15 -1.13,-0.2 -2.18,-0.18c-0.85,0 -1.62,0.06 -1.92,0.14zm-29.92,22.32c-0.08,0.06 -0.34,0.11 -0.56,0.11c-0.22,0 -0.68,0.09 -1.01,0.21c-0.34,0.11 -0.95,0.35 -1.37,0.52c-0.41,0.18 -0.83,0.37 -0.91,0.44c-0.08,0.06 -0.32,0.2 -0.51,0.29c-0.19,0.1 -0.5,0.31 -0.68,0.45c-0.2,0.14 -0.72,0.61 -1.16,1.02c-0.45,0.42 -0.96,0.98 -1.15,1.27c-0.19,0.27 -0.41,0.76 -0.5,1.06c-0.09,0.3 -0.2,0.69 -0.26,0.86c-0.06,0.16 -0.09,1.15 -0.09,2.18c0,1.45 0.03,1.97 0.16,2.32c0.09,0.26 0.23,0.59 0.31,0.77c0.09,0.16 0.38,0.61 0.65,1.01c0.26,0.38 0.89,1.09 1.39,1.57c0.49,0.47 1.09,0.99 1.32,1.16c0.24,0.16 0.6,0.44 0.81,0.61c0.21,0.16 0.58,0.41 0.81,0.56c0.24,0.14 0.71,0.43 1.06,0.65c0.34,0.23 0.92,0.58 1.28,0.78c0.37,0.21 1.37,0.73 2.23,1.18c0.86,0.44 1.92,0.95 2.35,1.12c0.47,0.18 0.83,0.4 0.89,0.52c0.05,0.11 0.1,0.35 0.1,0.52c0,0.19 -0.11,0.5 -0.23,0.69c-0.12,0.2 -0.4,0.58 -0.6,0.86c-0.2,0.28 -0.59,0.67 -0.85,0.86c-0.26,0.2 -0.67,0.49 -0.89,0.65c-0.24,0.16 -0.68,0.42 -1.01,0.58c-0.31,0.16 -0.76,0.36 -1.01,0.45c-0.23,0.1 -0.88,0.33 -1.43,0.52c-0.56,0.2 -1.18,0.41 -1.37,0.46c-0.19,0.05 -0.61,0.14 -0.91,0.2c-0.31,0.06 -1.18,0.11 -1.92,0.11c-0.75,-0.01 -1.7,-0.05 -2.08,-0.11c-0.4,-0.05 -0.88,-0.15 -1.1,-0.22c-0.2,-0.05 -0.52,-0.14 -0.7,-0.19c-0.17,-0.05 -0.8,-0.33 -1.39,-0.63c-0.59,-0.32 -1.52,-0.86 -2.08,-1.24c-0.55,-0.37 -1.19,-0.82 -1.42,-0.99c-0.22,-0.16 -0.51,-0.37 -0.65,-0.47c-0.14,-0.1 -0.43,-0.31 -0.63,-0.48c-0.2,-0.16 -0.56,-0.45 -0.79,-0.61c-0.23,-0.17 -0.78,-0.63 -1.21,-1.01c-0.45,-0.4 -1.11,-0.98 -1.48,-1.32c-0.38,-0.33 -0.99,-1.01 -1.35,-1.5c-0.67,-0.89 -0.67,-0.89 -1.12,-0.89c-0.26,0 -0.51,0.06 -0.57,0.13c-0.06,0.08 -0.16,0.32 -0.23,0.54c-0.11,0.33 -0.1,0.49 0.02,0.91c0.08,0.27 0.24,0.69 0.35,0.91c0.12,0.22 0.36,0.59 0.53,0.81c0.16,0.23 0.4,0.57 0.54,0.76c0.14,0.19 0.7,0.79 1.26,1.32c0.56,0.53 1.37,1.26 1.81,1.65c0.44,0.37 0.99,0.85 1.25,1.06c0.25,0.21 0.56,0.47 0.71,0.56c0.14,0.09 0.45,0.33 0.71,0.52c0.25,0.2 0.85,0.62 1.33,0.93c0.49,0.33 1.24,0.8 1.67,1.05c0.44,0.24 1.25,0.61 1.8,0.8c0.56,0.18 1.2,0.38 1.42,0.44c0.22,0.05 0.68,0.14 1.01,0.2c0.34,0.06 1.73,0.11 3.09,0.11c1.44,0 2.69,-0.04 2.99,-0.11c0.27,-0.06 0.69,-0.15 0.91,-0.2c0.22,-0.06 0.81,-0.24 1.32,-0.41c0.49,-0.16 1.4,-0.55 2.02,-0.86c0.61,-0.3 1.57,-0.86 2.13,-1.23c0.56,-0.37 1.1,-0.7 1.22,-0.73c0.1,-0.04 0.31,-0.04 0.45,0c0.14,0.03 0.71,0.36 1.26,0.73c0.56,0.37 1.51,0.93 2.13,1.23c0.61,0.31 1.52,0.7 2.03,0.86c0.49,0.17 1.09,0.35 1.31,0.41c0.23,0.05 0.63,0.14 0.91,0.2c0.3,0.07 1.55,0.11 2.99,0.11c1.37,0 2.76,-0.05 3.09,-0.11c0.33,-0.06 0.79,-0.15 1.01,-0.2c0.23,-0.06 0.86,-0.26 1.42,-0.44c0.56,-0.19 1.36,-0.56 1.8,-0.8c0.44,-0.25 1.19,-0.72 1.67,-1.05c0.49,-0.31 1.09,-0.73 1.34,-0.93c0.25,-0.19 0.57,-0.43 0.71,-0.52c0.14,-0.09 0.45,-0.35 0.71,-0.56c0.25,-0.21 0.81,-0.69 1.24,-1.06c0.44,-0.39 1.26,-1.12 1.81,-1.65c0.56,-0.53 1.13,-1.13 1.26,-1.32c0.14,-0.19 0.38,-0.53 0.55,-0.76c0.17,-0.22 0.4,-0.59 0.52,-0.81c0.11,-0.22 0.28,-0.64 0.36,-0.91c0.12,-0.42 0.13,-0.58 0.02,-0.91c-0.08,-0.22 -0.18,-0.46 -0.24,-0.54c-0.06,-0.07 -0.31,-0.13 -0.56,-0.13c-0.46,0 -0.46,0 -1.13,0.89c-0.36,0.49 -0.97,1.17 -1.34,1.5c-0.38,0.34 -1.04,0.92 -1.48,1.32c-0.44,0.38 -0.99,0.84 -1.22,1.01c-0.23,0.16 -0.59,0.45 -0.78,0.61c-0.21,0.17 -0.49,0.38 -0.63,0.48c-0.14,0.1 -0.44,0.31 -0.66,0.47c-0.23,0.17 -0.86,0.62 -1.42,0.99c-0.56,0.38 -1.49,0.92 -2.08,1.24c-0.58,0.3 -1.21,0.58 -1.39,0.63c-0.18,0.05 -0.5,0.14 -0.71,0.19c-0.2,0.07 -0.7,0.17 -1.08,0.22c-0.4,0.06 -1.33,0.1 -2.08,0.11c-0.75,0 -1.62,-0.05 -1.92,-0.11c-0.31,-0.06 -0.72,-0.15 -0.91,-0.2c-0.2,-0.05 -0.82,-0.26 -1.37,-0.46c-0.56,-0.19 -1.21,-0.42 -1.45,-0.52c-0.23,-0.09 -0.69,-0.29 -1.01,-0.45c-0.32,-0.16 -0.76,-0.42 -0.99,-0.58c-0.23,-0.16 -0.64,-0.45 -0.92,-0.67c-0.27,-0.2 -0.65,-0.59 -0.85,-0.86c-0.19,-0.26 -0.45,-0.64 -0.57,-0.84c-0.13,-0.19 -0.24,-0.5 -0.24,-0.69c0,-0.17 0.04,-0.41 0.1,-0.52c0.07,-0.12 0.43,-0.34 0.89,-0.52c0.43,-0.17 1.49,-0.68 2.36,-1.12c0.85,-0.45 1.86,-0.97 2.22,-1.18c0.37,-0.2 0.94,-0.55 1.29,-0.78c0.34,-0.22 0.82,-0.51 1.05,-0.65c0.23,-0.15 0.6,-0.4 0.81,-0.56c0.22,-0.17 0.58,-0.45 0.81,-0.61c0.23,-0.17 0.83,-0.69 1.33,-1.16c0.49,-0.48 1.12,-1.19 1.38,-1.57c0.28,-0.4 0.56,-0.85 0.65,-1.01c0.08,-0.18 0.22,-0.51 0.31,-0.77c0.13,-0.35 0.17,-0.87 0.17,-2.32c0,-1.03 -0.04,-2.02 -0.09,-2.18c-0.06,-0.17 -0.18,-0.56 -0.27,-0.86c-0.09,-0.3 -0.31,-0.79 -0.5,-1.06c-0.18,-0.29 -0.7,-0.85 -1.15,-1.27c-0.44,-0.41 -0.96,-0.88 -1.15,-1.02c-0.18,-0.14 -0.5,-0.35 -0.69,-0.45c-0.19,-0.09 -0.42,-0.23 -0.51,-0.29c-0.07,-0.07 -0.49,-0.26 -0.91,-0.44c-0.41,-0.18 -0.99,-0.4 -1.26,-0.49c-0.29,-0.1 -0.78,-0.22 -1.12,-0.28c-0.33,-0.05 -3.48,-0.11 -6.98,-0.13c-4.05,-0.03 -6.43,0 -6.53,0.06zm0,0" fill="#000000" fill-rule="nonzero" id="svg_7"/>
  <path d="m154.34,34.45l24.31,0l0,88.96l-24.31,0l0,-88.96zm0,0" fill="none" id="svg_8" stroke="#181718" stroke-miterlimit="4" stroke-width="12.93"/>
  <path d="m248.21,123.42l-24.18,0l-16.16,-33.5l0,33.5l-24.31,0l0,-88.96l24.31,0l16.16,33.49l0,-33.49l24.18,0l0,88.96zm0,0" fill="none" id="svg_9" stroke="#181718" stroke-miterlimit="4" stroke-width="12.93"/>
  <path d="m309.76,111.26c0,3.29 -1.21,6.14 -3.63,8.56c-2.4,2.4 -5.24,3.6 -8.52,3.6l-32.33,0c-3.28,0 -6.14,-1.2 -8.55,-3.6c-2.4,-2.41 -3.6,-5.27 -3.6,-8.56l0,-76.81l24.31,0l0,64.66l8.02,0l0,-64.66l24.31,0l0,76.81l-0.01,0zm0,0" fill="none" id="svg_10" stroke="#181718" stroke-miterlimit="4" stroke-width="12.93"/>
  <path d="m371.31,111.26c0,3.29 -1.21,6.14 -3.63,8.56c-2.4,2.4 -5.24,3.6 -8.52,3.6l-32.33,0c-3.29,0 -6.14,-1.2 -8.55,-3.6c-2.41,-2.41 -3.6,-5.27 -3.6,-8.56l0,-64.65c0,-3.28 1.19,-6.13 3.6,-8.52c2.41,-2.42 5.26,-3.64 8.55,-3.64l40.48,0l0,24.31l-28.32,0l0,40.35l8.02,0l0,-24.18l24.31,0l0,36.33l-0.01,0zm0,0" fill="none" id="svg_11" stroke="#181718" stroke-miterlimit="4" stroke-width="12.93"/>
  <path d="m408.55,83.07l0,-24.32l-8.02,0l0,24.32l8.02,0zm24.31,40.34l-24.31,0l0,-16.16l-8.02,0l0,16.16l-24.31,0l0,-76.81c0,-3.28 1.2,-6.13 3.6,-8.52c2.41,-2.42 5.27,-3.64 8.55,-3.64l32.33,0c3.29,0 6.12,1.21 8.52,3.64c2.42,2.39 3.63,5.24 3.63,8.52l0,76.81l0.01,0zm0,0" fill="none" id="svg_12" stroke="#181718" stroke-miterlimit="4" stroke-width="12.93"/>
  <path d="m526.74,123.42l-24.32,0l0,-30.78l-14.08,30.78l-12.03,0l-14.24,-30.78l0,30.78l-24.31,0l0,-88.96l24.31,0l20.17,43.82l20.17,-43.82l24.32,0l0,88.96l0.01,0zm0,0" fill="none" id="svg_13" stroke="#181718" stroke-miterlimit="4" stroke-width="12.93"/>
  <path d="m588.28,123.42l-56.63,0l0,-88.96l56.63,0l0,24.31l-32.33,0l0,8.03l24.18,0l0,24.31l-24.18,0l0,8.02l32.33,0l0,24.31l0,-0.02zm0,0" fill="none" id="svg_14" stroke="#181718" stroke-miterlimit="4" stroke-width="12.93"/>
  <path d="m649.83,111.26c0,3.29 -1.21,6.14 -3.63,8.56c-2.4,2.4 -5.24,3.6 -8.52,3.6l-44.48,0l0,-24.31l32.33,0l0,-8.02l-20.18,0c-3.28,0 -6.13,-1.2 -8.56,-3.6c-2.39,-2.42 -3.59,-5.27 -3.59,-8.56l0,-32.32c0,-3.28 1.2,-6.13 3.59,-8.52c2.42,-2.42 5.28,-3.64 8.56,-3.64l41.26,0l0,24.31l-29.11,0l0,8.03l20.17,0c3.29,0 6.12,1.21 8.52,3.63c2.42,2.4 3.63,5.24 3.63,8.52l0,32.32l0.01,0zm0,0" fill="none" id="svg_15" stroke="#181718" stroke-miterlimit="4" stroke-width="12.93"/>
  <g fill="#ffffff" id="svg_16" transform="translate(-45 -291)">
   <g id="svg_17" transform="translate(195.326566, 414.416016)">
    <g id="svg_18">
     <path d="m28.31,0l-24.29,0l0,-88.97l24.29,0l0,88.97zm0,0" id="svg_19"/>
    </g>
   </g>
  </g>
  <g fill="#ffffff" id="svg_20" transform="translate(-45 -291)">
   <g id="svg_21" transform="translate(224.549317, 414.416016)">
    <g id="svg_22">
     <path d="m68.67,0l-24.19,0l-16.17,-33.48l0,33.48l-24.29,0l0,-88.97l24.29,0l16.17,33.5l0,-33.5l24.19,0l0,88.97zm0,0" id="svg_23"/>
    </g>
   </g>
  </g>
  <g fill="#ffffff" id="svg_24" transform="translate(-45 -291)">
   <g id="svg_25" transform="translate(294.115126, 414.416016)">
    <g id="svg_26">
     <path d="m60.64,-12.16c0,3.28 -1.21,6.14 -3.62,8.55c-2.41,2.41 -5.25,3.61 -8.52,3.61l-32.33,0c-3.28,0 -6.13,-1.2 -8.54,-3.61c-2.41,-2.41 -3.61,-5.27 -3.61,-8.55l0,-76.81l24.29,0l0,64.66l8.03,0l0,-64.66l24.3,0l0,76.81zm0,0" id="svg_27"/>
    </g>
   </g>
  </g>
  <g fill="#ffffff" id="svg_28" transform="translate(-45 -291)">
   <g id="svg_29" transform="translate(355.664047, 414.416016)">
    <g id="svg_30">
     <path d="m60.64,-12.16c0,3.28 -1.21,6.14 -3.62,8.55c-2.41,2.41 -5.25,3.61 -8.52,3.61l-32.33,0c-3.28,0 -6.13,-1.2 -8.54,-3.61c-2.41,-2.41 -3.61,-5.27 -3.61,-8.55l0,-64.65c0,-3.27 1.2,-6.12 3.61,-8.53c2.41,-2.42 5.26,-3.63 8.54,-3.63l40.47,0l0,24.31l-28.33,0l0,40.35l8.03,0l0,-24.19l24.3,0l0,36.34zm0,0" id="svg_31"/>
    </g>
   </g>
  </g>
  <g fill="#ffffff" id="svg_32" transform="translate(-45 -291)">
   <g id="svg_33" transform="translate(417.212961, 414.416016)">
    <g id="svg_34">
     <path d="m36.34,-40.34l0,-24.32l-8.03,0l0,24.32l8.03,0zm24.3,40.34l-24.3,0l0,-16.17l-8.03,0l0,16.17l-24.29,0l0,-76.81c0,-3.27 1.2,-6.12 3.61,-8.53c2.41,-2.42 5.26,-3.63 8.54,-3.63l32.33,0c3.27,0 6.11,1.21 8.52,3.63c2.41,2.41 3.62,5.26 3.62,8.53l0,76.81zm0,0" id="svg_35"/>
    </g>
   </g>
  </g>
  <g fill="#ffffff" id="svg_36" transform="translate(-45 -291)">
   <g id="svg_37" transform="translate(478.761918, 414.416016)">
    <g id="svg_38">
     <path d="m92.97,0l-24.3,0l0,-30.78l-14.11,30.78l-12.01,0l-14.24,-30.78l0,30.78l-24.29,0l0,-88.97l24.29,0l20.19,43.84l20.17,-43.84l24.3,0l0,88.97zm0,0" id="svg_39"/>
    </g>
   </g>
  </g>
  <g fill="#ffffff" id="svg_40" transform="translate(-45 -291)">
   <g id="svg_41" transform="translate(572.636977, 414.416016)">
    <g id="svg_42">
     <path d="m60.64,0l-56.62,0l0,-88.97l56.62,0l0,24.31l-32.33,0l0,8.02l24.19,0l0,24.31l-24.19,0l0,8.02l32.33,0l0,24.31zm0,0" id="svg_43"/>
    </g>
   </g>
  </g>
  <g fill="#ffffff" id="svg_44" transform="translate(-45 -291)">
   <g id="svg_45" transform="translate(634.18591, 414.416016)">
    <g id="svg_46">
     <path d="m60.64,-12.16c0,3.28 -1.21,6.14 -3.62,8.55c-2.41,2.41 -5.25,3.61 -8.52,3.61l-44.48,0l0,-24.31l32.32,0l0,-8.02l-20.17,0c-3.28,0 -6.13,-1.2 -8.54,-3.61c-2.41,-2.41 -3.61,-5.26 -3.61,-8.54l0,-32.33c0,-3.27 1.2,-6.12 3.61,-8.53c2.41,-2.42 5.26,-3.63 8.54,-3.63l41.25,0l0,24.31l-29.11,0l0,8.02l20.19,0c3.27,0 6.11,1.21 8.52,3.62c2.41,2.42 3.62,5.27 3.62,8.54l0,32.32zm0,0" id="svg_47"/>
    </g>
   </g>
  </g>
 </g>
</svg>