<?xml version="1.0"?>
<svg width="550" height="330" xmlns="http://www.w3.org/2000/svg" xmlns:svg="http://www.w3.org/2000/svg" preserveAspectRatio="xMidYMid meet" version="1.0">
 <g class="layer">
  <title>Layer 1</title>
  <g id="svg_4" transform="translate(1 0) translate(-291 -17)">
   <path d="m436.24,111.24l-104.05,0l0,-86.39l99.29,0l0,21.37l-63.04,0l0,13.54l53.29,0l0,16.62l-53.29,0l0,13.48l67.8,0l0,21.37l0,0.01zm105.42,0l-100.84,0l0,-86.39l36.25,0l0,65.02l64.6,0l0,21.37l-0.01,0zm57.87,1.86c-21.35,0 -37.07,-4.39 -47.14,-13.18c-8.91,-7.79 -13.37,-18.41 -13.37,-31.85c0,-13.41 4.46,-24.01 13.37,-31.79c10.08,-8.79 25.79,-13.19 47.14,-13.19c21.35,0 37.07,4.39 47.14,13.19c8.91,7.78 13.37,18.38 13.37,31.79c0,13.45 -4.46,24.06 -13.37,31.85c-10.08,8.78 -25.79,13.18 -47.14,13.18zm0,-23.18c8.75,0 15.17,-2.51 19.27,-7.53c3.29,-4.04 4.93,-8.82 4.93,-14.32c0,-5.5 -1.64,-10.25 -4.93,-14.27c-4.09,-5.06 -10.52,-7.59 -19.27,-7.59c-8.76,0 -15.19,2.53 -19.32,7.59c-3.29,4.02 -4.94,8.76 -4.94,14.27c0,5.5 1.65,10.28 4.94,14.32c4.13,5.02 10.57,7.53 19.32,7.53zm193.27,21.31l-43.11,0l-48.82,-58.47l0,58.47l-36.25,0l0,-86.39l43.11,0l48.83,58.16l0,-58.16l36.24,0l0,86.39zm0,0" fill="none" id="svg_1" stroke="#ffffff" stroke-miterlimit="4" stroke-width="4.79"/>
   <path d="m416.57,225.15l-34.26,0c-1.56,-2.17 -2.66,-4.94 -3.31,-8.31c-0.56,-2.61 -1.4,-5.16 -2.53,-7.67c-1.12,-2.51 -3.06,-4.59 -5.81,-6.26c-2.75,-1.66 -6.83,-2.56 -12.25,-2.67l-23.54,0l0,24.92l-36.24,0l0,-86.39l58.94,0c14.08,0 25.45,1.04 34.1,3.16c8.65,2.1 14.96,5.42 18.94,9.93c3.97,4.52 5.96,10.41 5.96,17.67c0,6.06 -1.37,11.16 -4.12,15.29c-2.75,4.13 -7.09,7.4 -13.03,9.82c5.73,2.36 9.46,5.2 11.17,8.51c1.7,3.31 2.75,6.96 3.16,10.93c0.41,3.53 1.34,7.23 2.83,11.08l-0.01,-0.01zm-81.7,-46.24l20.71,-0.06c5.78,0 10.34,-0.26 13.67,-0.79c3.33,-0.52 5.78,-1.24 7.37,-2.13c1.58,-0.91 2.6,-1.91 3.04,-3.01c0.43,-1.1 0.66,-2.24 0.66,-3.4c0,-1.17 -0.22,-2.31 -0.66,-3.44c-0.44,-1.12 -1.46,-2.13 -3.04,-3.04c-1.59,-0.9 -4.04,-1.61 -7.37,-2.13c-3.33,-0.52 -7.89,-0.78 -13.67,-0.78l-20.71,0l0,18.78zm221.75,46.24l-36.73,0l-8.13,-14.15l-54.49,0l-8.13,14.15l-36.73,0l55.27,-86.33l33.66,0l55.27,86.33l0.01,0zm-57.08,-35.52l-14.99,-26.19l-15.06,26.19l30.05,0zm93.98,35.52l-36.24,0l0,-86.39l36.24,0l0,86.39zm67.2,0l-57.8,0l0,-86.39l57.8,0c23.64,0 40.64,3.3 51,9.93c8.35,5.34 13.11,12.6 14.27,21.79c0.52,3.98 0.78,7.81 0.78,11.51c0,3.65 -0.25,7.47 -0.75,11.47c-0.5,4 -1.83,7.87 -4.01,11.62c-2.16,3.75 -5.61,7.13 -10.32,10.15c-4.72,3.01 -11.18,5.42 -19.39,7.22c-8.2,1.81 -18.73,2.71 -31.57,2.71l-0.01,-0.01zm-3.44,-21.37c18.43,0 28.84,-4.65 31.26,-13.97c0.64,-2.62 0.96,-5.22 0.96,-7.83c0,-2.65 -0.33,-5.27 -0.99,-7.86c-0.66,-2.59 -2.07,-4.94 -4.21,-7.05c-2.15,-2.1 -5.37,-3.79 -9.66,-5.06c-4.3,-1.26 -10.08,-1.89 -17.35,-1.89l-18.12,0l0,43.65l18.12,0l-0.01,0.01zm121.51,23.23c-11.68,0 -21.09,-1.25 -28.24,-3.75c-7.14,-2.51 -12.58,-5.97 -16.31,-10.36c-3.73,-4.39 -6.25,-9.47 -7.52,-15.2l38.47,0c2.85,4.09 7.38,6.14 13.61,6.14c6.22,0 10.75,-2.05 13.6,-6.14c0.24,-0.41 0.37,-0.76 0.37,-1.08c0,-1.09 -1.44,-1.9 -4.31,-2.44c-2.88,-0.54 -7.15,-0.96 -12.86,-1.24c-7.18,-0.32 -14.73,-1.08 -22.64,-2.29c-17.62,-2.73 -26.43,-9.82 -26.43,-21.26c0,-0.97 0.06,-1.99 0.18,-3.07c1.27,-5.74 3.79,-10.8 7.52,-15.2c3.74,-4.39 9.17,-7.85 16.31,-10.36c7.15,-2.5 16.56,-3.75 28.24,-3.75c11.68,0 21.09,1.25 28.23,3.75c7.14,2.51 12.59,5.97 16.31,10.36c3.74,4.4 6.25,9.46 7.53,15.2l-38.48,0c-2.85,-4.09 -7.38,-6.14 -13.6,-6.14c-6.23,0 -10.76,2.05 -13.61,6.14c-0.2,0.32 -0.3,0.63 -0.3,0.91c0,0.97 1.37,1.67 4.12,2.13c2.75,0.46 6.81,0.85 12.16,1.18c5.36,0.32 11.07,0.84 17.13,1.56c6.05,0.72 11.73,1.98 17.01,3.76c5.27,1.79 9.4,4.42 12.37,7.92c2.33,2.69 3.49,6.1 3.49,10.23c0,1.17 -0.1,2.39 -0.3,3.68c-1.28,5.73 -3.79,10.81 -7.53,15.2c-3.73,4.39 -9.17,7.85 -16.31,10.36c-7.14,2.5 -16.55,3.75 -28.23,3.75l0.02,0.01zm0,0" fill="none" id="svg_2" stroke="#ffffff" stroke-miterlimit="4" stroke-width="4.79"/>
   <path d="m463.09,339.05l-36.25,0l0,-55.09l-32.39,55.09l-27.03,0l-32.34,-55.09l0,55.09l-36.25,0l0,-86.39l43.05,0l39.07,61.71l39.02,-61.71l43.11,0l0,86.39l0.01,0zm144.86,0l-36.73,0l-8.13,-14.15l-54.49,0l-8.13,14.15l-36.73,0l55.27,-86.33l33.66,0l55.27,86.33l0.01,0zm-57.08,-35.52l-14.99,-26.19l-15.06,26.19l30.05,0zm175.69,35.52l-34.26,0c-1.57,-2.17 -2.67,-4.94 -3.32,-8.31c-0.56,-2.61 -1.4,-5.16 -2.52,-7.67c-1.13,-2.51 -3.07,-4.59 -5.82,-6.26c-2.74,-1.66 -6.82,-2.56 -12.25,-2.67l-23.54,0l0,24.92l-36.24,0l0,-86.39l58.94,0c14.09,0 25.45,1.04 34.11,3.16c8.65,2.1 14.96,5.42 18.93,9.93c3.98,4.52 5.97,10.41 5.97,17.67c0,6.06 -1.38,11.16 -4.13,15.29c-2.75,4.13 -7.09,7.4 -13.03,9.82c5.74,2.36 9.46,5.2 11.17,8.51c1.71,3.31 2.76,6.96 3.16,10.93c0.41,3.53 1.35,7.23 2.84,11.08l-0.01,-0.01zm-81.71,-46.24l20.71,-0.06c5.78,0 10.34,-0.26 13.67,-0.79c3.33,-0.52 5.79,-1.24 7.37,-2.13c1.58,-0.91 2.6,-1.91 3.04,-3.01c0.44,-1.1 0.67,-2.24 0.67,-3.4c0,-1.17 -0.22,-2.31 -0.67,-3.44c-0.44,-1.12 -1.46,-2.13 -3.04,-3.04c-1.58,-0.9 -4.04,-1.61 -7.37,-2.13c-3.33,-0.52 -7.89,-0.78 -13.67,-0.78l-20.71,0l0,18.78zm133.73,48.1c-11.68,0 -21.09,-1.25 -28.23,-3.75c-7.14,-2.51 -12.59,-5.97 -16.32,-10.36c-3.74,-4.39 -6.24,-9.47 -7.52,-15.2l38.47,0c2.86,4.09 7.38,6.14 13.61,6.14c6.22,0 10.75,-2.05 13.61,-6.14c0.24,-0.41 0.36,-0.76 0.36,-1.08c0,-1.09 -1.44,-1.9 -4.31,-2.44c-2.87,-0.54 -7.15,-0.96 -12.86,-1.24c-7.18,-0.32 -14.73,-1.08 -22.64,-2.29c-17.62,-2.73 -26.43,-9.82 -26.43,-21.26c0,-0.97 0.06,-1.99 0.18,-3.07c1.28,-5.74 3.78,-10.81 7.52,-15.2c3.74,-4.39 9.18,-7.85 16.32,-10.36c7.14,-2.5 16.55,-3.75 28.23,-3.75c11.68,0 21.09,1.25 28.23,3.75c7.14,2.51 12.59,5.97 16.31,10.36c3.74,4.39 6.25,9.46 7.53,15.2l-38.47,0c-2.86,-4.09 -7.39,-6.14 -13.61,-6.14c-6.23,0 -10.75,2.05 -13.61,6.14c-0.19,0.32 -0.3,0.63 -0.3,0.91c0,0.97 1.37,1.67 4.12,2.13c2.75,0.46 6.81,0.86 12.16,1.18c5.36,0.32 11.07,0.84 17.13,1.56c6.06,0.72 11.73,1.98 17.01,3.76c5.28,1.79 9.4,4.42 12.37,7.92c2.33,2.69 3.48,6.1 3.48,10.23c0,1.17 -0.1,2.39 -0.3,3.68c-1.28,5.73 -3.79,10.81 -7.53,15.2c-3.73,4.39 -9.17,7.85 -16.31,10.36c-7.14,2.5 -16.55,3.75 -28.23,3.75l0.03,0.01zm0,0" fill="none" id="svg_3" stroke="#ffffff" stroke-miterlimit="4" stroke-width="4.79"/>
  </g>
 </g>
</svg>